<svg xmlns="http://www.w3.org/2000/svg" width="220.0mm" height="294.0mm" viewBox="0 0 220.0 294.0" font-family="monospace">
<rect x="0" y="0" width="220.0" height="280.0" rx="4.0" fill="none" stroke="#222" stroke-width="0.5"/>
<rect x="10" y="7.5" width="78.0" height="20.5" fill="none" stroke="#c00" stroke-width="0.35"/>
<rect x="5.0" y="3.8499999999999996" width="88.0" height="27.8" fill="none" stroke="#999" stroke-width="0.25" stroke-dasharray="1.5 1"/>
<rect x="95.0" y="8.0" width="52.0" height="4.0" fill="none" stroke="#c00" stroke-width="0.35"/>
<rect x="105.0" y="20.75" width="32.0" height="2.5" fill="none" stroke="#c00" stroke-width="0.35"/>
<rect x="79.0" y="54.5" width="62.0" height="3.0" fill="none" stroke="#c00" stroke-width="0.35"/>
<rect x="56.75" y="46.75" width="106.5" height="18.5" fill="none" stroke="#999" stroke-width="0.25" stroke-dasharray="1.5 1"/>
<rect x="73.5" y="70.0" width="73.0" height="73.0" fill="none" stroke="#c00" stroke-width="0.35"/>
<rect x="67.5" y="63.75" width="85.0" height="85.5" fill="none" stroke="#999" stroke-width="0.25" stroke-dasharray="1.5 1"/>
<rect x="79.0" y="151.5" width="62.0" height="3.0" fill="none" stroke="#c00" stroke-width="0.35"/>
<rect x="56.75" y="143.75" width="106.5" height="18.5" fill="none" stroke="#999" stroke-width="0.25" stroke-dasharray="1.5 1"/>
<rect x="14.2" y="189.0" width="3.0" height="62.0" fill="none" stroke="#c00" stroke-width="0.35"/>
<rect x="6.449999999999999" y="166.75" width="18.5" height="106.5" fill="none" stroke="#999" stroke-width="0.25" stroke-dasharray="1.5 1"/>
<rect x="33.05" y="189.0" width="3.0" height="62.0" fill="none" stroke="#c00" stroke-width="0.35"/>
<rect x="25.299999999999997" y="166.75" width="18.5" height="106.5" fill="none" stroke="#999" stroke-width="0.25" stroke-dasharray="1.5 1"/>
<rect x="51.900000000000006" y="189.0" width="3.0" height="62.0" fill="none" stroke="#c00" stroke-width="0.35"/>
<rect x="44.150000000000006" y="166.75" width="18.5" height="106.5" fill="none" stroke="#999" stroke-width="0.25" stroke-dasharray="1.5 1"/>
<rect x="70.75" y="189.0" width="3.0" height="62.0" fill="none" stroke="#c00" stroke-width="0.35"/>
<rect x="63.0" y="166.75" width="18.5" height="106.5" fill="none" stroke="#999" stroke-width="0.25" stroke-dasharray="1.5 1"/>
<rect x="89.60000000000001" y="189.0" width="3.0" height="62.0" fill="none" stroke="#c00" stroke-width="0.35"/>
<rect x="81.85000000000001" y="166.75" width="18.5" height="106.5" fill="none" stroke="#999" stroke-width="0.25" stroke-dasharray="1.5 1"/>
<rect x="108.45" y="189.0" width="3.0" height="62.0" fill="none" stroke="#c00" stroke-width="0.35"/>
<rect x="100.7" y="166.75" width="18.5" height="106.5" fill="none" stroke="#999" stroke-width="0.25" stroke-dasharray="1.5 1"/>
<rect x="127.30000000000001" y="189.0" width="3.0" height="62.0" fill="none" stroke="#c00" stroke-width="0.35"/>
<rect x="119.55000000000001" y="166.75" width="18.5" height="106.5" fill="none" stroke="#999" stroke-width="0.25" stroke-dasharray="1.5 1"/>
<rect x="146.15" y="189.0" width="3.0" height="62.0" fill="none" stroke="#c00" stroke-width="0.35"/>
<rect x="138.4" y="166.75" width="18.5" height="106.5" fill="none" stroke="#999" stroke-width="0.25" stroke-dasharray="1.5 1"/>
<rect x="165.0" y="189.0" width="3.0" height="62.0" fill="none" stroke="#c00" stroke-width="0.35"/>
<rect x="157.25" y="166.75" width="18.5" height="106.5" fill="none" stroke="#999" stroke-width="0.25" stroke-dasharray="1.5 1"/>
<rect x="183.85" y="189.0" width="3.0" height="62.0" fill="none" stroke="#c00" stroke-width="0.35"/>
<rect x="176.1" y="166.75" width="18.5" height="106.5" fill="none" stroke="#999" stroke-width="0.25" stroke-dasharray="1.5 1"/>
<rect x="202.7" y="189.0" width="3.0" height="62.0" fill="none" stroke="#c00" stroke-width="0.35"/>
<rect x="194.95" y="166.75" width="18.5" height="106.5" fill="none" stroke="#999" stroke-width="0.25" stroke-dasharray="1.5 1"/>
<circle cx="100.5" cy="22.0" r="1.2" fill="none" stroke="#c60" stroke-width="0.35"/>
<circle cx="141.5" cy="22.0" r="1.2" fill="none" stroke="#c60" stroke-width="0.35"/>
<circle cx="108.0" cy="36.0" r="3.7" fill="none" stroke="#c00" stroke-width="0.35"/>
<circle cx="130.0" cy="36.0" r="3.7" fill="none" stroke="#c00" stroke-width="0.35"/>
<circle cx="200.0" cy="10.0" r="6.5" fill="none" stroke="#c00" stroke-width="0.35"/>
<circle cx="200.0" cy="27.0" r="6.5" fill="none" stroke="#c00" stroke-width="0.35"/>
<circle cx="200.0" cy="44.0" r="6.5" fill="none" stroke="#c00" stroke-width="0.35"/>
<circle cx="14.0" cy="39.5" r="6.5" fill="none" stroke="#c00" stroke-width="0.35"/>
<circle cx="31.5" cy="39.5" r="6.5" fill="none" stroke="#c00" stroke-width="0.35"/>
<circle cx="49.0" cy="39.5" r="6.5" fill="none" stroke="#c00" stroke-width="0.35"/>
<circle cx="66.5" cy="39.5" r="6.5" fill="none" stroke="#c00" stroke-width="0.35"/>
<circle cx="84.0" cy="39.5" r="6.5" fill="none" stroke="#c00" stroke-width="0.35"/>
<circle cx="70.0" cy="56.0" r="1.7" fill="none" stroke="#c60" stroke-width="0.35"/>
<circle cx="150.0" cy="56.0" r="1.7" fill="none" stroke="#c60" stroke-width="0.35"/>
<circle cx="161.0" cy="85.0" r="6.5" fill="none" stroke="#c00" stroke-width="0.35"/>
<circle cx="161.0" cy="106.5" r="6.5" fill="none" stroke="#c00" stroke-width="0.35"/>
<circle cx="161.0" cy="128.0" r="6.5" fill="none" stroke="#c00" stroke-width="0.35"/>
<circle cx="59.0" cy="85.0" r="6.5" fill="none" stroke="#c00" stroke-width="0.35"/>
<circle cx="59.0" cy="106.5" r="6.5" fill="none" stroke="#c00" stroke-width="0.35"/>
<circle cx="10.0" cy="80.0" r="1.0" fill="none" stroke="#080" stroke-width="0.25"/>
<circle cx="14.5" cy="80.0" r="1.0" fill="none" stroke="#080" stroke-width="0.25"/>
<circle cx="19.0" cy="80.0" r="1.0" fill="none" stroke="#080" stroke-width="0.25"/>
<circle cx="23.5" cy="80.0" r="1.0" fill="none" stroke="#080" stroke-width="0.25"/>
<circle cx="28.0" cy="80.0" r="1.0" fill="none" stroke="#080" stroke-width="0.25"/>
<circle cx="32.5" cy="80.0" r="1.0" fill="none" stroke="#080" stroke-width="0.25"/>
<circle cx="37.0" cy="80.0" r="1.0" fill="none" stroke="#080" stroke-width="0.25"/>
<circle cx="41.5" cy="80.0" r="1.0" fill="none" stroke="#080" stroke-width="0.25"/>
<circle cx="46.0" cy="80.0" r="1.0" fill="none" stroke="#080" stroke-width="0.25"/>
<circle cx="12.25" cy="83.89711431702997" r="1.0" fill="none" stroke="#080" stroke-width="0.25"/>
<circle cx="16.75" cy="83.89711431702997" r="1.0" fill="none" stroke="#080" stroke-width="0.25"/>
<circle cx="21.25" cy="83.89711431702997" r="1.0" fill="none" stroke="#080" stroke-width="0.25"/>
<circle cx="25.75" cy="83.89711431702997" r="1.0" fill="none" stroke="#080" stroke-width="0.25"/>
<circle cx="30.25" cy="83.89711431702997" r="1.0" fill="none" stroke="#080" stroke-width="0.25"/>
<circle cx="34.75" cy="83.89711431702997" r="1.0" fill="none" stroke="#080" stroke-width="0.25"/>
<circle cx="39.25" cy="83.89711431702997" r="1.0" fill="none" stroke="#080" stroke-width="0.25"/>
<circle cx="43.75" cy="83.89711431702997" r="1.0" fill="none" stroke="#080" stroke-width="0.25"/>
<circle cx="48.25" cy="83.89711431702997" r="1.0" fill="none" stroke="#080" stroke-width="0.25"/>
<circle cx="10.0" cy="87.79422863405995" r="1.0" fill="none" stroke="#080" stroke-width="0.25"/>
<circle cx="14.5" cy="87.79422863405995" r="1.0" fill="none" stroke="#080" stroke-width="0.25"/>
<circle cx="19.0" cy="87.79422863405995" r="1.0" fill="none" stroke="#080" stroke-width="0.25"/>
<circle cx="23.5" cy="87.79422863405995" r="1.0" fill="none" stroke="#080" stroke-width="0.25"/>
<circle cx="28.0" cy="87.79422863405995" r="1.0" fill="none" stroke="#080" stroke-width="0.25"/>
<circle cx="32.5" cy="87.79422863405995" r="1.0" fill="none" stroke="#080" stroke-width="0.25"/>
<circle cx="37.0" cy="87.79422863405995" r="1.0" fill="none" stroke="#080" stroke-width="0.25"/>
<circle cx="41.5" cy="87.79422863405995" r="1.0" fill="none" stroke="#080" stroke-width="0.25"/>
<circle cx="46.0" cy="87.79422863405995" r="1.0" fill="none" stroke="#080" stroke-width="0.25"/>
<circle cx="12.25" cy="91.69134295108992" r="1.0" fill="none" stroke="#080" stroke-width="0.25"/>
<circle cx="16.75" cy="91.69134295108992" r="1.0" fill="none" stroke="#080" stroke-width="0.25"/>
<circle cx="21.25" cy="91.69134295108992" r="1.0" fill="none" stroke="#080" stroke-width="0.25"/>
<circle cx="25.75" cy="91.69134295108992" r="1.0" fill="none" stroke="#080" stroke-width="0.25"/>
<circle cx="30.25" cy="91.69134295108992" r="1.0" fill="none" stroke="#080" stroke-width="0.25"/>
<circle cx="34.75" cy="91.69134295108992" r="1.0" fill="none" stroke="#080" stroke-width="0.25"/>
<circle cx="39.25" cy="91.69134295108992" r="1.0" fill="none" stroke="#080" stroke-width="0.25"/>
<circle cx="43.75" cy="91.69134295108992" r="1.0" fill="none" stroke="#080" stroke-width="0.25"/>
<circle cx="48.25" cy="91.69134295108992" r="1.0" fill="none" stroke="#080" stroke-width="0.25"/>
<circle cx="10.0" cy="95.5884572681199" r="1.0" fill="none" stroke="#080" stroke-width="0.25"/>
<circle cx="14.5" cy="95.5884572681199" r="1.0" fill="none" stroke="#080" stroke-width="0.25"/>
<circle cx="19.0" cy="95.5884572681199" r="1.0" fill="none" stroke="#080" stroke-width="0.25"/>
<circle cx="23.5" cy="95.5884572681199" r="1.0" fill="none" stroke="#080" stroke-width="0.25"/>
<circle cx="28.0" cy="95.5884572681199" r="1.0" fill="none" stroke="#080" stroke-width="0.25"/>
<circle cx="32.5" cy="95.5884572681199" r="1.0" fill="none" stroke="#080" stroke-width="0.25"/>
<circle cx="37.0" cy="95.5884572681199" r="1.0" fill="none" stroke="#080" stroke-width="0.25"/>
<circle cx="41.5" cy="95.5884572681199" r="1.0" fill="none" stroke="#080" stroke-width="0.25"/>
<circle cx="46.0" cy="95.5884572681199" r="1.0" fill="none" stroke="#080" stroke-width="0.25"/>
<circle cx="12.25" cy="99.48557158514987" r="1.0" fill="none" stroke="#080" stroke-width="0.25"/>
<circle cx="16.75" cy="99.48557158514987" r="1.0" fill="none" stroke="#080" stroke-width="0.25"/>
<circle cx="21.25" cy="99.48557158514987" r="1.0" fill="none" stroke="#080" stroke-width="0.25"/>
<circle cx="25.75" cy="99.48557158514987" r="1.0" fill="none" stroke="#080" stroke-width="0.25"/>
<circle cx="30.25" cy="99.48557158514987" r="1.0" fill="none" stroke="#080" stroke-width="0.25"/>
<circle cx="34.75" cy="99.48557158514987" r="1.0" fill="none" stroke="#080" stroke-width="0.25"/>
<circle cx="39.25" cy="99.48557158514987" r="1.0" fill="none" stroke="#080" stroke-width="0.25"/>
<circle cx="43.75" cy="99.48557158514987" r="1.0" fill="none" stroke="#080" stroke-width="0.25"/>
<circle cx="48.25" cy="99.48557158514987" r="1.0" fill="none" stroke="#080" stroke-width="0.25"/>
<circle cx="10.0" cy="103.38268590217984" r="1.0" fill="none" stroke="#080" stroke-width="0.25"/>
<circle cx="14.5" cy="103.38268590217984" r="1.0" fill="none" stroke="#080" stroke-width="0.25"/>
<circle cx="19.0" cy="103.38268590217984" r="1.0" fill="none" stroke="#080" stroke-width="0.25"/>
<circle cx="23.5" cy="103.38268590217984" r="1.0" fill="none" stroke="#080" stroke-width="0.25"/>
<circle cx="28.0" cy="103.38268590217984" r="1.0" fill="none" stroke="#080" stroke-width="0.25"/>
<circle cx="32.5" cy="103.38268590217984" r="1.0" fill="none" stroke="#080" stroke-width="0.25"/>
<circle cx="37.0" cy="103.38268590217984" r="1.0" fill="none" stroke="#080" stroke-width="0.25"/>
<circle cx="41.5" cy="103.38268590217984" r="1.0" fill="none" stroke="#080" stroke-width="0.25"/>
<circle cx="46.0" cy="103.38268590217984" r="1.0" fill="none" stroke="#080" stroke-width="0.25"/>
<circle cx="12.25" cy="107.27980021920982" r="1.0" fill="none" stroke="#080" stroke-width="0.25"/>
<circle cx="16.75" cy="107.27980021920982" r="1.0" fill="none" stroke="#080" stroke-width="0.25"/>
<circle cx="21.25" cy="107.27980021920982" r="1.0" fill="none" stroke="#080" stroke-width="0.25"/>
<circle cx="25.75" cy="107.27980021920982" r="1.0" fill="none" stroke="#080" stroke-width="0.25"/>
<circle cx="30.25" cy="107.27980021920982" r="1.0" fill="none" stroke="#080" stroke-width="0.25"/>
<circle cx="34.75" cy="107.27980021920982" r="1.0" fill="none" stroke="#080" stroke-width="0.25"/>
<circle cx="39.25" cy="107.27980021920982" r="1.0" fill="none" stroke="#080" stroke-width="0.25"/>
<circle cx="43.75" cy="107.27980021920982" r="1.0" fill="none" stroke="#080" stroke-width="0.25"/>
<circle cx="48.25" cy="107.27980021920982" r="1.0" fill="none" stroke="#080" stroke-width="0.25"/>
<circle cx="10.0" cy="111.17691453623979" r="1.0" fill="none" stroke="#080" stroke-width="0.25"/>
<circle cx="14.5" cy="111.17691453623979" r="1.0" fill="none" stroke="#080" stroke-width="0.25"/>
<circle cx="19.0" cy="111.17691453623979" r="1.0" fill="none" stroke="#080" stroke-width="0.25"/>
<circle cx="23.5" cy="111.17691453623979" r="1.0" fill="none" stroke="#080" stroke-width="0.25"/>
<circle cx="28.0" cy="111.17691453623979" r="1.0" fill="none" stroke="#080" stroke-width="0.25"/>
<circle cx="32.5" cy="111.17691453623979" r="1.0" fill="none" stroke="#080" stroke-width="0.25"/>
<circle cx="37.0" cy="111.17691453623979" r="1.0" fill="none" stroke="#080" stroke-width="0.25"/>
<circle cx="41.5" cy="111.17691453623979" r="1.0" fill="none" stroke="#080" stroke-width="0.25"/>
<circle cx="46.0" cy="111.17691453623979" r="1.0" fill="none" stroke="#080" stroke-width="0.25"/>
<circle cx="12.25" cy="115.07402885326977" r="1.0" fill="none" stroke="#080" stroke-width="0.25"/>
<circle cx="16.75" cy="115.07402885326977" r="1.0" fill="none" stroke="#080" stroke-width="0.25"/>
<circle cx="21.25" cy="115.07402885326977" r="1.0" fill="none" stroke="#080" stroke-width="0.25"/>
<circle cx="25.75" cy="115.07402885326977" r="1.0" fill="none" stroke="#080" stroke-width="0.25"/>
<circle cx="30.25" cy="115.07402885326977" r="1.0" fill="none" stroke="#080" stroke-width="0.25"/>
<circle cx="34.75" cy="115.07402885326977" r="1.0" fill="none" stroke="#080" stroke-width="0.25"/>
<circle cx="39.25" cy="115.07402885326977" r="1.0" fill="none" stroke="#080" stroke-width="0.25"/>
<circle cx="43.75" cy="115.07402885326977" r="1.0" fill="none" stroke="#080" stroke-width="0.25"/>
<circle cx="48.25" cy="115.07402885326977" r="1.0" fill="none" stroke="#080" stroke-width="0.25"/>
<circle cx="10.0" cy="118.97114317029974" r="1.0" fill="none" stroke="#080" stroke-width="0.25"/>
<circle cx="14.5" cy="118.97114317029974" r="1.0" fill="none" stroke="#080" stroke-width="0.25"/>
<circle cx="19.0" cy="118.97114317029974" r="1.0" fill="none" stroke="#080" stroke-width="0.25"/>
<circle cx="23.5" cy="118.97114317029974" r="1.0" fill="none" stroke="#080" stroke-width="0.25"/>
<circle cx="28.0" cy="118.97114317029974" r="1.0" fill="none" stroke="#080" stroke-width="0.25"/>
<circle cx="32.5" cy="118.97114317029974" r="1.0" fill="none" stroke="#080" stroke-width="0.25"/>
<circle cx="37.0" cy="118.97114317029974" r="1.0" fill="none" stroke="#080" stroke-width="0.25"/>
<circle cx="41.5" cy="118.97114317029974" r="1.0" fill="none" stroke="#080" stroke-width="0.25"/>
<circle cx="46.0" cy="118.97114317029974" r="1.0" fill="none" stroke="#080" stroke-width="0.25"/>
<circle cx="12.25" cy="122.86825748732971" r="1.0" fill="none" stroke="#080" stroke-width="0.25"/>
<circle cx="16.75" cy="122.86825748732971" r="1.0" fill="none" stroke="#080" stroke-width="0.25"/>
<circle cx="21.25" cy="122.86825748732971" r="1.0" fill="none" stroke="#080" stroke-width="0.25"/>
<circle cx="25.75" cy="122.86825748732971" r="1.0" fill="none" stroke="#080" stroke-width="0.25"/>
<circle cx="30.25" cy="122.86825748732971" r="1.0" fill="none" stroke="#080" stroke-width="0.25"/>
<circle cx="34.75" cy="122.86825748732971" r="1.0" fill="none" stroke="#080" stroke-width="0.25"/>
<circle cx="39.25" cy="122.86825748732971" r="1.0" fill="none" stroke="#080" stroke-width="0.25"/>
<circle cx="43.75" cy="122.86825748732971" r="1.0" fill="none" stroke="#080" stroke-width="0.25"/>
<circle cx="48.25" cy="122.86825748732971" r="1.0" fill="none" stroke="#080" stroke-width="0.25"/>
<circle cx="10.0" cy="126.76537180435969" r="1.0" fill="none" stroke="#080" stroke-width="0.25"/>
<circle cx="14.5" cy="126.76537180435969" r="1.0" fill="none" stroke="#080" stroke-width="0.25"/>
<circle cx="19.0" cy="126.76537180435969" r="1.0" fill="none" stroke="#080" stroke-width="0.25"/>
<circle cx="23.5" cy="126.76537180435969" r="1.0" fill="none" stroke="#080" stroke-width="0.25"/>
<circle cx="28.0" cy="126.76537180435969" r="1.0" fill="none" stroke="#080" stroke-width="0.25"/>
<circle cx="32.5" cy="126.76537180435969" r="1.0" fill="none" stroke="#080" stroke-width="0.25"/>
<circle cx="37.0" cy="126.76537180435969" r="1.0" fill="none" stroke="#080" stroke-width="0.25"/>
<circle cx="41.5" cy="126.76537180435969" r="1.0" fill="none" stroke="#080" stroke-width="0.25"/>
<circle cx="46.0" cy="126.76537180435969" r="1.0" fill="none" stroke="#080" stroke-width="0.25"/>
<circle cx="12.25" cy="130.66248612138966" r="1.0" fill="none" stroke="#080" stroke-width="0.25"/>
<circle cx="16.75" cy="130.66248612138966" r="1.0" fill="none" stroke="#080" stroke-width="0.25"/>
<circle cx="21.25" cy="130.66248612138966" r="1.0" fill="none" stroke="#080" stroke-width="0.25"/>
<circle cx="25.75" cy="130.66248612138966" r="1.0" fill="none" stroke="#080" stroke-width="0.25"/>
<circle cx="30.25" cy="130.66248612138966" r="1.0" fill="none" stroke="#080" stroke-width="0.25"/>
<circle cx="34.75" cy="130.66248612138966" r="1.0" fill="none" stroke="#080" stroke-width="0.25"/>
<circle cx="39.25" cy="130.66248612138966" r="1.0" fill="none" stroke="#080" stroke-width="0.25"/>
<circle cx="43.75" cy="130.66248612138966" r="1.0" fill="none" stroke="#080" stroke-width="0.25"/>
<circle cx="48.25" cy="130.66248612138966" r="1.0" fill="none" stroke="#080" stroke-width="0.25"/>
<circle cx="10.0" cy="134.55960043841964" r="1.0" fill="none" stroke="#080" stroke-width="0.25"/>
<circle cx="14.5" cy="134.55960043841964" r="1.0" fill="none" stroke="#080" stroke-width="0.25"/>
<circle cx="19.0" cy="134.55960043841964" r="1.0" fill="none" stroke="#080" stroke-width="0.25"/>
<circle cx="23.5" cy="134.55960043841964" r="1.0" fill="none" stroke="#080" stroke-width="0.25"/>
<circle cx="28.0" cy="134.55960043841964" r="1.0" fill="none" stroke="#080" stroke-width="0.25"/>
<circle cx="32.5" cy="134.55960043841964" r="1.0" fill="none" stroke="#080" stroke-width="0.25"/>
<circle cx="37.0" cy="134.55960043841964" r="1.0" fill="none" stroke="#080" stroke-width="0.25"/>
<circle cx="41.5" cy="134.55960043841964" r="1.0" fill="none" stroke="#080" stroke-width="0.25"/>
<circle cx="46.0" cy="134.55960043841964" r="1.0" fill="none" stroke="#080" stroke-width="0.25"/>
<circle cx="171.0" cy="80.0" r="1.0" fill="none" stroke="#080" stroke-width="0.25"/>
<circle cx="175.5" cy="80.0" r="1.0" fill="none" stroke="#080" stroke-width="0.25"/>
<circle cx="180.0" cy="80.0" r="1.0" fill="none" stroke="#080" stroke-width="0.25"/>
<circle cx="184.5" cy="80.0" r="1.0" fill="none" stroke="#080" stroke-width="0.25"/>
<circle cx="189.0" cy="80.0" r="1.0" fill="none" stroke="#080" stroke-width="0.25"/>
<circle cx="193.5" cy="80.0" r="1.0" fill="none" stroke="#080" stroke-width="0.25"/>
<circle cx="198.0" cy="80.0" r="1.0" fill="none" stroke="#080" stroke-width="0.25"/>
<circle cx="202.5" cy="80.0" r="1.0" fill="none" stroke="#080" stroke-width="0.25"/>
<circle cx="207.0" cy="80.0" r="1.0" fill="none" stroke="#080" stroke-width="0.25"/>
<circle cx="173.25" cy="83.89711431702997" r="1.0" fill="none" stroke="#080" stroke-width="0.25"/>
<circle cx="177.75" cy="83.89711431702997" r="1.0" fill="none" stroke="#080" stroke-width="0.25"/>
<circle cx="182.25" cy="83.89711431702997" r="1.0" fill="none" stroke="#080" stroke-width="0.25"/>
<circle cx="186.75" cy="83.89711431702997" r="1.0" fill="none" stroke="#080" stroke-width="0.25"/>
<circle cx="191.25" cy="83.89711431702997" r="1.0" fill="none" stroke="#080" stroke-width="0.25"/>
<circle cx="195.75" cy="83.89711431702997" r="1.0" fill="none" stroke="#080" stroke-width="0.25"/>
<circle cx="200.25" cy="83.89711431702997" r="1.0" fill="none" stroke="#080" stroke-width="0.25"/>
<circle cx="204.75" cy="83.89711431702997" r="1.0" fill="none" stroke="#080" stroke-width="0.25"/>
<circle cx="209.25" cy="83.89711431702997" r="1.0" fill="none" stroke="#080" stroke-width="0.25"/>
<circle cx="171.0" cy="87.79422863405995" r="1.0" fill="none" stroke="#080" stroke-width="0.25"/>
<circle cx="175.5" cy="87.79422863405995" r="1.0" fill="none" stroke="#080" stroke-width="0.25"/>
<circle cx="180.0" cy="87.79422863405995" r="1.0" fill="none" stroke="#080" stroke-width="0.25"/>
<circle cx="184.5" cy="87.79422863405995" r="1.0" fill="none" stroke="#080" stroke-width="0.25"/>
<circle cx="189.0" cy="87.79422863405995" r="1.0" fill="none" stroke="#080" stroke-width="0.25"/>
<circle cx="193.5" cy="87.79422863405995" r="1.0" fill="none" stroke="#080" stroke-width="0.25"/>
<circle cx="198.0" cy="87.79422863405995" r="1.0" fill="none" stroke="#080" stroke-width="0.25"/>
<circle cx="202.5" cy="87.79422863405995" r="1.0" fill="none" stroke="#080" stroke-width="0.25"/>
<circle cx="207.0" cy="87.79422863405995" r="1.0" fill="none" stroke="#080" stroke-width="0.25"/>
<circle cx="173.25" cy="91.69134295108992" r="1.0" fill="none" stroke="#080" stroke-width="0.25"/>
<circle cx="177.75" cy="91.69134295108992" r="1.0" fill="none" stroke="#080" stroke-width="0.25"/>
<circle cx="182.25" cy="91.69134295108992" r="1.0" fill="none" stroke="#080" stroke-width="0.25"/>
<circle cx="186.75" cy="91.69134295108992" r="1.0" fill="none" stroke="#080" stroke-width="0.25"/>
<circle cx="191.25" cy="91.69134295108992" r="1.0" fill="none" stroke="#080" stroke-width="0.25"/>
<circle cx="195.75" cy="91.69134295108992" r="1.0" fill="none" stroke="#080" stroke-width="0.25"/>
<circle cx="200.25" cy="91.69134295108992" r="1.0" fill="none" stroke="#080" stroke-width="0.25"/>
<circle cx="204.75" cy="91.69134295108992" r="1.0" fill="none" stroke="#080" stroke-width="0.25"/>
<circle cx="209.25" cy="91.69134295108992" r="1.0" fill="none" stroke="#080" stroke-width="0.25"/>
<circle cx="171.0" cy="95.5884572681199" r="1.0" fill="none" stroke="#080" stroke-width="0.25"/>
<circle cx="175.5" cy="95.5884572681199" r="1.0" fill="none" stroke="#080" stroke-width="0.25"/>
<circle cx="180.0" cy="95.5884572681199" r="1.0" fill="none" stroke="#080" stroke-width="0.25"/>
<circle cx="184.5" cy="95.5884572681199" r="1.0" fill="none" stroke="#080" stroke-width="0.25"/>
<circle cx="189.0" cy="95.5884572681199" r="1.0" fill="none" stroke="#080" stroke-width="0.25"/>
<circle cx="193.5" cy="95.5884572681199" r="1.0" fill="none" stroke="#080" stroke-width="0.25"/>
<circle cx="198.0" cy="95.5884572681199" r="1.0" fill="none" stroke="#080" stroke-width="0.25"/>
<circle cx="202.5" cy="95.5884572681199" r="1.0" fill="none" stroke="#080" stroke-width="0.25"/>
<circle cx="207.0" cy="95.5884572681199" r="1.0" fill="none" stroke="#080" stroke-width="0.25"/>
<circle cx="173.25" cy="99.48557158514987" r="1.0" fill="none" stroke="#080" stroke-width="0.25"/>
<circle cx="177.75" cy="99.48557158514987" r="1.0" fill="none" stroke="#080" stroke-width="0.25"/>
<circle cx="182.25" cy="99.48557158514987" r="1.0" fill="none" stroke="#080" stroke-width="0.25"/>
<circle cx="186.75" cy="99.48557158514987" r="1.0" fill="none" stroke="#080" stroke-width="0.25"/>
<circle cx="191.25" cy="99.48557158514987" r="1.0" fill="none" stroke="#080" stroke-width="0.25"/>
<circle cx="195.75" cy="99.48557158514987" r="1.0" fill="none" stroke="#080" stroke-width="0.25"/>
<circle cx="200.25" cy="99.48557158514987" r="1.0" fill="none" stroke="#080" stroke-width="0.25"/>
<circle cx="204.75" cy="99.48557158514987" r="1.0" fill="none" stroke="#080" stroke-width="0.25"/>
<circle cx="209.25" cy="99.48557158514987" r="1.0" fill="none" stroke="#080" stroke-width="0.25"/>
<circle cx="171.0" cy="103.38268590217984" r="1.0" fill="none" stroke="#080" stroke-width="0.25"/>
<circle cx="175.5" cy="103.38268590217984" r="1.0" fill="none" stroke="#080" stroke-width="0.25"/>
<circle cx="180.0" cy="103.38268590217984" r="1.0" fill="none" stroke="#080" stroke-width="0.25"/>
<circle cx="184.5" cy="103.38268590217984" r="1.0" fill="none" stroke="#080" stroke-width="0.25"/>
<circle cx="189.0" cy="103.38268590217984" r="1.0" fill="none" stroke="#080" stroke-width="0.25"/>
<circle cx="193.5" cy="103.38268590217984" r="1.0" fill="none" stroke="#080" stroke-width="0.25"/>
<circle cx="198.0" cy="103.38268590217984" r="1.0" fill="none" stroke="#080" stroke-width="0.25"/>
<circle cx="202.5" cy="103.38268590217984" r="1.0" fill="none" stroke="#080" stroke-width="0.25"/>
<circle cx="207.0" cy="103.38268590217984" r="1.0" fill="none" stroke="#080" stroke-width="0.25"/>
<circle cx="173.25" cy="107.27980021920982" r="1.0" fill="none" stroke="#080" stroke-width="0.25"/>
<circle cx="177.75" cy="107.27980021920982" r="1.0" fill="none" stroke="#080" stroke-width="0.25"/>
<circle cx="182.25" cy="107.27980021920982" r="1.0" fill="none" stroke="#080" stroke-width="0.25"/>
<circle cx="186.75" cy="107.27980021920982" r="1.0" fill="none" stroke="#080" stroke-width="0.25"/>
<circle cx="191.25" cy="107.27980021920982" r="1.0" fill="none" stroke="#080" stroke-width="0.25"/>
<circle cx="195.75" cy="107.27980021920982" r="1.0" fill="none" stroke="#080" stroke-width="0.25"/>
<circle cx="200.25" cy="107.27980021920982" r="1.0" fill="none" stroke="#080" stroke-width="0.25"/>
<circle cx="204.75" cy="107.27980021920982" r="1.0" fill="none" stroke="#080" stroke-width="0.25"/>
<circle cx="209.25" cy="107.27980021920982" r="1.0" fill="none" stroke="#080" stroke-width="0.25"/>
<circle cx="171.0" cy="111.17691453623979" r="1.0" fill="none" stroke="#080" stroke-width="0.25"/>
<circle cx="175.5" cy="111.17691453623979" r="1.0" fill="none" stroke="#080" stroke-width="0.25"/>
<circle cx="180.0" cy="111.17691453623979" r="1.0" fill="none" stroke="#080" stroke-width="0.25"/>
<circle cx="184.5" cy="111.17691453623979" r="1.0" fill="none" stroke="#080" stroke-width="0.25"/>
<circle cx="189.0" cy="111.17691453623979" r="1.0" fill="none" stroke="#080" stroke-width="0.25"/>
<circle cx="193.5" cy="111.17691453623979" r="1.0" fill="none" stroke="#080" stroke-width="0.25"/>
<circle cx="198.0" cy="111.17691453623979" r="1.0" fill="none" stroke="#080" stroke-width="0.25"/>
<circle cx="202.5" cy="111.17691453623979" r="1.0" fill="none" stroke="#080" stroke-width="0.25"/>
<circle cx="207.0" cy="111.17691453623979" r="1.0" fill="none" stroke="#080" stroke-width="0.25"/>
<circle cx="173.25" cy="115.07402885326977" r="1.0" fill="none" stroke="#080" stroke-width="0.25"/>
<circle cx="177.75" cy="115.07402885326977" r="1.0" fill="none" stroke="#080" stroke-width="0.25"/>
<circle cx="182.25" cy="115.07402885326977" r="1.0" fill="none" stroke="#080" stroke-width="0.25"/>
<circle cx="186.75" cy="115.07402885326977" r="1.0" fill="none" stroke="#080" stroke-width="0.25"/>
<circle cx="191.25" cy="115.07402885326977" r="1.0" fill="none" stroke="#080" stroke-width="0.25"/>
<circle cx="195.75" cy="115.07402885326977" r="1.0" fill="none" stroke="#080" stroke-width="0.25"/>
<circle cx="200.25" cy="115.07402885326977" r="1.0" fill="none" stroke="#080" stroke-width="0.25"/>
<circle cx="204.75" cy="115.07402885326977" r="1.0" fill="none" stroke="#080" stroke-width="0.25"/>
<circle cx="209.25" cy="115.07402885326977" r="1.0" fill="none" stroke="#080" stroke-width="0.25"/>
<circle cx="171.0" cy="118.97114317029974" r="1.0" fill="none" stroke="#080" stroke-width="0.25"/>
<circle cx="175.5" cy="118.97114317029974" r="1.0" fill="none" stroke="#080" stroke-width="0.25"/>
<circle cx="180.0" cy="118.97114317029974" r="1.0" fill="none" stroke="#080" stroke-width="0.25"/>
<circle cx="184.5" cy="118.97114317029974" r="1.0" fill="none" stroke="#080" stroke-width="0.25"/>
<circle cx="189.0" cy="118.97114317029974" r="1.0" fill="none" stroke="#080" stroke-width="0.25"/>
<circle cx="193.5" cy="118.97114317029974" r="1.0" fill="none" stroke="#080" stroke-width="0.25"/>
<circle cx="198.0" cy="118.97114317029974" r="1.0" fill="none" stroke="#080" stroke-width="0.25"/>
<circle cx="202.5" cy="118.97114317029974" r="1.0" fill="none" stroke="#080" stroke-width="0.25"/>
<circle cx="207.0" cy="118.97114317029974" r="1.0" fill="none" stroke="#080" stroke-width="0.25"/>
<circle cx="173.25" cy="122.86825748732971" r="1.0" fill="none" stroke="#080" stroke-width="0.25"/>
<circle cx="177.75" cy="122.86825748732971" r="1.0" fill="none" stroke="#080" stroke-width="0.25"/>
<circle cx="182.25" cy="122.86825748732971" r="1.0" fill="none" stroke="#080" stroke-width="0.25"/>
<circle cx="186.75" cy="122.86825748732971" r="1.0" fill="none" stroke="#080" stroke-width="0.25"/>
<circle cx="191.25" cy="122.86825748732971" r="1.0" fill="none" stroke="#080" stroke-width="0.25"/>
<circle cx="195.75" cy="122.86825748732971" r="1.0" fill="none" stroke="#080" stroke-width="0.25"/>
<circle cx="200.25" cy="122.86825748732971" r="1.0" fill="none" stroke="#080" stroke-width="0.25"/>
<circle cx="204.75" cy="122.86825748732971" r="1.0" fill="none" stroke="#080" stroke-width="0.25"/>
<circle cx="209.25" cy="122.86825748732971" r="1.0" fill="none" stroke="#080" stroke-width="0.25"/>
<circle cx="171.0" cy="126.76537180435969" r="1.0" fill="none" stroke="#080" stroke-width="0.25"/>
<circle cx="175.5" cy="126.76537180435969" r="1.0" fill="none" stroke="#080" stroke-width="0.25"/>
<circle cx="180.0" cy="126.76537180435969" r="1.0" fill="none" stroke="#080" stroke-width="0.25"/>
<circle cx="184.5" cy="126.76537180435969" r="1.0" fill="none" stroke="#080" stroke-width="0.25"/>
<circle cx="189.0" cy="126.76537180435969" r="1.0" fill="none" stroke="#080" stroke-width="0.25"/>
<circle cx="193.5" cy="126.76537180435969" r="1.0" fill="none" stroke="#080" stroke-width="0.25"/>
<circle cx="198.0" cy="126.76537180435969" r="1.0" fill="none" stroke="#080" stroke-width="0.25"/>
<circle cx="202.5" cy="126.76537180435969" r="1.0" fill="none" stroke="#080" stroke-width="0.25"/>
<circle cx="207.0" cy="126.76537180435969" r="1.0" fill="none" stroke="#080" stroke-width="0.25"/>
<circle cx="173.25" cy="130.66248612138966" r="1.0" fill="none" stroke="#080" stroke-width="0.25"/>
<circle cx="177.75" cy="130.66248612138966" r="1.0" fill="none" stroke="#080" stroke-width="0.25"/>
<circle cx="182.25" cy="130.66248612138966" r="1.0" fill="none" stroke="#080" stroke-width="0.25"/>
<circle cx="186.75" cy="130.66248612138966" r="1.0" fill="none" stroke="#080" stroke-width="0.25"/>
<circle cx="191.25" cy="130.66248612138966" r="1.0" fill="none" stroke="#080" stroke-width="0.25"/>
<circle cx="195.75" cy="130.66248612138966" r="1.0" fill="none" stroke="#080" stroke-width="0.25"/>
<circle cx="200.25" cy="130.66248612138966" r="1.0" fill="none" stroke="#080" stroke-width="0.25"/>
<circle cx="204.75" cy="130.66248612138966" r="1.0" fill="none" stroke="#080" stroke-width="0.25"/>
<circle cx="209.25" cy="130.66248612138966" r="1.0" fill="none" stroke="#080" stroke-width="0.25"/>
<circle cx="171.0" cy="134.55960043841964" r="1.0" fill="none" stroke="#080" stroke-width="0.25"/>
<circle cx="175.5" cy="134.55960043841964" r="1.0" fill="none" stroke="#080" stroke-width="0.25"/>
<circle cx="180.0" cy="134.55960043841964" r="1.0" fill="none" stroke="#080" stroke-width="0.25"/>
<circle cx="184.5" cy="134.55960043841964" r="1.0" fill="none" stroke="#080" stroke-width="0.25"/>
<circle cx="189.0" cy="134.55960043841964" r="1.0" fill="none" stroke="#080" stroke-width="0.25"/>
<circle cx="193.5" cy="134.55960043841964" r="1.0" fill="none" stroke="#080" stroke-width="0.25"/>
<circle cx="198.0" cy="134.55960043841964" r="1.0" fill="none" stroke="#080" stroke-width="0.25"/>
<circle cx="202.5" cy="134.55960043841964" r="1.0" fill="none" stroke="#080" stroke-width="0.25"/>
<circle cx="207.0" cy="134.55960043841964" r="1.0" fill="none" stroke="#080" stroke-width="0.25"/>
<circle cx="70.0" cy="153.0" r="1.7" fill="none" stroke="#c60" stroke-width="0.35"/>
<circle cx="150.0" cy="153.0" r="1.7" fill="none" stroke="#c60" stroke-width="0.35"/>
<circle cx="15.7" cy="180.0" r="1.7" fill="none" stroke="#c60" stroke-width="0.35"/>
<circle cx="15.7" cy="260.0" r="1.7" fill="none" stroke="#c60" stroke-width="0.35"/>
<circle cx="34.55" cy="180.0" r="1.7" fill="none" stroke="#c60" stroke-width="0.35"/>
<circle cx="34.55" cy="260.0" r="1.7" fill="none" stroke="#c60" stroke-width="0.35"/>
<circle cx="53.400000000000006" cy="180.0" r="1.7" fill="none" stroke="#c60" stroke-width="0.35"/>
<circle cx="53.400000000000006" cy="260.0" r="1.7" fill="none" stroke="#c60" stroke-width="0.35"/>
<circle cx="72.25" cy="180.0" r="1.7" fill="none" stroke="#c60" stroke-width="0.35"/>
<circle cx="72.25" cy="260.0" r="1.7" fill="none" stroke="#c60" stroke-width="0.35"/>
<circle cx="91.10000000000001" cy="180.0" r="1.7" fill="none" stroke="#c60" stroke-width="0.35"/>
<circle cx="91.10000000000001" cy="260.0" r="1.7" fill="none" stroke="#c60" stroke-width="0.35"/>
<circle cx="109.95" cy="180.0" r="1.7" fill="none" stroke="#c60" stroke-width="0.35"/>
<circle cx="109.95" cy="260.0" r="1.7" fill="none" stroke="#c60" stroke-width="0.35"/>
<circle cx="128.8" cy="180.0" r="1.7" fill="none" stroke="#c60" stroke-width="0.35"/>
<circle cx="128.8" cy="260.0" r="1.7" fill="none" stroke="#c60" stroke-width="0.35"/>
<circle cx="147.65" cy="180.0" r="1.7" fill="none" stroke="#c60" stroke-width="0.35"/>
<circle cx="147.65" cy="260.0" r="1.7" fill="none" stroke="#c60" stroke-width="0.35"/>
<circle cx="166.5" cy="180.0" r="1.7" fill="none" stroke="#c60" stroke-width="0.35"/>
<circle cx="166.5" cy="260.0" r="1.7" fill="none" stroke="#c60" stroke-width="0.35"/>
<circle cx="185.35" cy="180.0" r="1.7" fill="none" stroke="#c60" stroke-width="0.35"/>
<circle cx="185.35" cy="260.0" r="1.7" fill="none" stroke="#c60" stroke-width="0.35"/>
<circle cx="204.2" cy="180.0" r="1.7" fill="none" stroke="#c60" stroke-width="0.35"/>
<circle cx="204.2" cy="260.0" r="1.7" fill="none" stroke="#c60" stroke-width="0.35"/>
<text x="10" y="6.0" font-size="2.0" fill="#06c">OLED 256x64</text>
<text x="116.0" y="28.5" font-size="2.0" fill="#06c">L  BAL  R</text>
<text x="103.0" y="45.0" font-size="2.0" fill="#06c">SCROLL</text>
<text x="126.0" y="45.0" font-size="2.0" fill="#06c">MENU</text>
<text x="195.8" y="19.5" font-size="2.2" fill="#06c">SHUF</text>
<text x="195.8" y="36.5" font-size="2.2" fill="#06c">LOOP</text>
<text x="196.85" y="53.5" font-size="2.2" fill="#06c">AUX</text>
<text x="9.8" y="49.0" font-size="2.2" fill="#06c">PREV</text>
<text x="27.3" y="49.0" font-size="2.2" fill="#06c">PLAY</text>
<text x="43.75" y="49.0" font-size="2.2" fill="#06c">PAUSE</text>
<text x="62.3" y="49.0" font-size="2.2" fill="#06c">STOP</text>
<text x="79.8" y="49.0" font-size="2.2" fill="#06c">NEXT</text>
<text x="79.0" y="62.5" font-size="2.5" fill="#06c">VOLUME</text>
<text x="88.0" y="68.5" font-size="2.0" fill="#06c">HYPERPIXEL 4.0 SQUARE</text>
<text x="157.85" y="96.0" font-size="2.2" fill="#06c">NOW</text>
<text x="156.8" y="117.5" font-size="2.2" fill="#06c">LIST</text>
<text x="155.75" y="139.0" font-size="2.2" fill="#06c">QUEUE</text>
<text x="56.9" y="96.0" font-size="2.2" fill="#06c">EQ</text>
<text x="52.7" y="117.5" font-size="2.2" fill="#06c">PRESET</text>
<text x="79.0" y="159.5" font-size="2.5" fill="#06c">SEEK</text>
<text x="12.5" y="165.25" font-size="2.2" fill="#06c">PRE</text>
<text x="31.349999999999998" y="165.25" font-size="2.2" fill="#06c">60</text>
<text x="50.2" y="165.25" font-size="2.2" fill="#06c">170</text>
<text x="69.05" y="165.25" font-size="2.2" fill="#06c">310</text>
<text x="87.9" y="165.25" font-size="2.2" fill="#06c">600</text>
<text x="106.75" y="165.25" font-size="2.2" fill="#06c">1K</text>
<text x="125.60000000000001" y="165.25" font-size="2.2" fill="#06c">3K</text>
<text x="144.45000000000002" y="165.25" font-size="2.2" fill="#06c">6K</text>
<text x="163.3" y="165.25" font-size="2.2" fill="#06c">12K</text>
<text x="182.15" y="165.25" font-size="2.2" fill="#06c">14K</text>
<text x="201.0" y="165.25" font-size="2.2" fill="#06c">16K</text>
<text x="2" y="284.0" font-size="3.5" fill="#666">CONCEPT C — PANEL 220 x 280 mm — 10-band EQ, CENTERED screen, stereo grilles</text>
<text x="2" y="289.0" font-size="2.5" fill="#666">EQ pitch 19.0 · fader slots 62x3 / M3 span 80 · screen win 73x73 · VERIFY-marked dims vs datasheets before cutting</text>
</svg>