<svg xmlns="http://www.w3.org/2000/svg" width="220.0mm" height="294.0mm" viewBox="0 0 220.0 294.0" font-family="monospace">
<rect x="0" y="0" width="220.0" height="280.0" rx="4.0" fill="none" stroke="#222" stroke-width="0.5"/>
<rect x="10" y="7.5" width="78.0" height="20.5" fill="none" stroke="#c00" stroke-width="0.35"/>
<rect x="5.0" y="3.8499999999999996" width="88.0" height="27.8" fill="none" stroke="#999" stroke-width="0.25" stroke-dasharray="1.5 1"/>
<rect x="180" y="8.0" width="32" height="9" fill="none" stroke="#c00" stroke-width="0.35"/>
<rect x="180" y="21.0" width="32" height="9" fill="none" stroke="#c00" stroke-width="0.35"/>
<rect x="180" y="34.0" width="32" height="9" fill="none" stroke="#c00" stroke-width="0.35"/>
<rect x="95.0" y="8.0" width="52.0" height="4.0" fill="none" stroke="#c00" stroke-width="0.35"/>
<rect x="79.0" y="50.5" width="62.0" height="3.0" fill="none" stroke="#c00" stroke-width="0.35"/>
<rect x="56.75" y="42.75" width="106.5" height="18.5" fill="none" stroke="#999" stroke-width="0.25" stroke-dasharray="1.5 1"/>
<rect x="10" y="63.0" width="22" height="9" fill="none" stroke="#c00" stroke-width="0.35"/>
<rect x="37" y="63.0" width="22" height="9" fill="none" stroke="#c00" stroke-width="0.35"/>
<rect x="64" y="63.0" width="22" height="9" fill="none" stroke="#c00" stroke-width="0.35"/>
<rect x="149.0" y="66.25" width="32.0" height="2.5" fill="none" stroke="#c00" stroke-width="0.35"/>
<rect x="14.0" y="80.0" width="73.0" height="73.0" fill="none" stroke="#c00" stroke-width="0.35"/>
<rect x="8.0" y="73.75" width="85.0" height="85.5" fill="none" stroke="#999" stroke-width="0.25" stroke-dasharray="1.5 1"/>
<rect x="119.0" y="155.5" width="62.0" height="3.0" fill="none" stroke="#c00" stroke-width="0.35"/>
<rect x="96.75" y="147.75" width="106.5" height="18.5" fill="none" stroke="#999" stroke-width="0.25" stroke-dasharray="1.5 1"/>
<rect x="14.2" y="189.0" width="3.0" height="62.0" fill="none" stroke="#c00" stroke-width="0.35"/>
<rect x="6.449999999999999" y="166.75" width="18.5" height="106.5" fill="none" stroke="#999" stroke-width="0.25" stroke-dasharray="1.5 1"/>
<rect x="33.05" y="189.0" width="3.0" height="62.0" fill="none" stroke="#c00" stroke-width="0.35"/>
<rect x="25.299999999999997" y="166.75" width="18.5" height="106.5" fill="none" stroke="#999" stroke-width="0.25" stroke-dasharray="1.5 1"/>
<rect x="51.900000000000006" y="189.0" width="3.0" height="62.0" fill="none" stroke="#c00" stroke-width="0.35"/>
<rect x="44.150000000000006" y="166.75" width="18.5" height="106.5" fill="none" stroke="#999" stroke-width="0.25" stroke-dasharray="1.5 1"/>
<rect x="70.75" y="189.0" width="3.0" height="62.0" fill="none" stroke="#c00" stroke-width="0.35"/>
<rect x="63.0" y="166.75" width="18.5" height="106.5" fill="none" stroke="#999" stroke-width="0.25" stroke-dasharray="1.5 1"/>
<rect x="89.60000000000001" y="189.0" width="3.0" height="62.0" fill="none" stroke="#c00" stroke-width="0.35"/>
<rect x="81.85000000000001" y="166.75" width="18.5" height="106.5" fill="none" stroke="#999" stroke-width="0.25" stroke-dasharray="1.5 1"/>
<rect x="108.45" y="189.0" width="3.0" height="62.0" fill="none" stroke="#c00" stroke-width="0.35"/>
<rect x="100.7" y="166.75" width="18.5" height="106.5" fill="none" stroke="#999" stroke-width="0.25" stroke-dasharray="1.5 1"/>
<rect x="127.30000000000001" y="189.0" width="3.0" height="62.0" fill="none" stroke="#c00" stroke-width="0.35"/>
<rect x="119.55000000000001" y="166.75" width="18.5" height="106.5" fill="none" stroke="#999" stroke-width="0.25" stroke-dasharray="1.5 1"/>
<rect x="146.15" y="189.0" width="3.0" height="62.0" fill="none" stroke="#c00" stroke-width="0.35"/>
<rect x="138.4" y="166.75" width="18.5" height="106.5" fill="none" stroke="#999" stroke-width="0.25" stroke-dasharray="1.5 1"/>
<rect x="165.0" y="189.0" width="3.0" height="62.0" fill="none" stroke="#c00" stroke-width="0.35"/>
<rect x="157.25" y="166.75" width="18.5" height="106.5" fill="none" stroke="#999" stroke-width="0.25" stroke-dasharray="1.5 1"/>
<rect x="183.85" y="189.0" width="3.0" height="62.0" fill="none" stroke="#c00" stroke-width="0.35"/>
<rect x="176.1" y="166.75" width="18.5" height="106.5" fill="none" stroke="#999" stroke-width="0.25" stroke-dasharray="1.5 1"/>
<rect x="202.7" y="189.0" width="3.0" height="62.0" fill="none" stroke="#c00" stroke-width="0.35"/>
<rect x="194.95" y="166.75" width="18.5" height="106.5" fill="none" stroke="#999" stroke-width="0.25" stroke-dasharray="1.5 1"/>
<circle cx="14.0" cy="36.5" r="6.5" fill="none" stroke="#c00" stroke-width="0.35"/>
<circle cx="31.5" cy="36.5" r="6.5" fill="none" stroke="#c00" stroke-width="0.35"/>
<circle cx="49.0" cy="36.5" r="6.5" fill="none" stroke="#c00" stroke-width="0.35"/>
<circle cx="66.5" cy="36.5" r="6.5" fill="none" stroke="#c00" stroke-width="0.35"/>
<circle cx="84.0" cy="36.5" r="6.5" fill="none" stroke="#c00" stroke-width="0.35"/>
<circle cx="101.5" cy="36.5" r="6.5" fill="none" stroke="#c00" stroke-width="0.35"/>
<circle cx="70.0" cy="52.0" r="1.7" fill="none" stroke="#c60" stroke-width="0.35"/>
<circle cx="150.0" cy="52.0" r="1.7" fill="none" stroke="#c60" stroke-width="0.35"/>
<circle cx="105.0" cy="67.5" r="3.7" fill="none" stroke="#c00" stroke-width="0.35"/>
<circle cx="125.0" cy="67.5" r="3.7" fill="none" stroke="#c00" stroke-width="0.35"/>
<circle cx="144.5" cy="67.5" r="1.2" fill="none" stroke="#c60" stroke-width="0.35"/>
<circle cx="185.5" cy="67.5" r="1.2" fill="none" stroke="#c60" stroke-width="0.35"/>
<circle cx="102.0" cy="82.0" r="1.0" fill="none" stroke="#080" stroke-width="0.25"/>
<circle cx="106.5" cy="82.0" r="1.0" fill="none" stroke="#080" stroke-width="0.25"/>
<circle cx="111.0" cy="82.0" r="1.0" fill="none" stroke="#080" stroke-width="0.25"/>
<circle cx="115.5" cy="82.0" r="1.0" fill="none" stroke="#080" stroke-width="0.25"/>
<circle cx="120.0" cy="82.0" r="1.0" fill="none" stroke="#080" stroke-width="0.25"/>
<circle cx="124.5" cy="82.0" r="1.0" fill="none" stroke="#080" stroke-width="0.25"/>
<circle cx="129.0" cy="82.0" r="1.0" fill="none" stroke="#080" stroke-width="0.25"/>
<circle cx="133.5" cy="82.0" r="1.0" fill="none" stroke="#080" stroke-width="0.25"/>
<circle cx="138.0" cy="82.0" r="1.0" fill="none" stroke="#080" stroke-width="0.25"/>
<circle cx="142.5" cy="82.0" r="1.0" fill="none" stroke="#080" stroke-width="0.25"/>
<circle cx="147.0" cy="82.0" r="1.0" fill="none" stroke="#080" stroke-width="0.25"/>
<circle cx="151.5" cy="82.0" r="1.0" fill="none" stroke="#080" stroke-width="0.25"/>
<circle cx="156.0" cy="82.0" r="1.0" fill="none" stroke="#080" stroke-width="0.25"/>
<circle cx="160.5" cy="82.0" r="1.0" fill="none" stroke="#080" stroke-width="0.25"/>
<circle cx="165.0" cy="82.0" r="1.0" fill="none" stroke="#080" stroke-width="0.25"/>
<circle cx="169.5" cy="82.0" r="1.0" fill="none" stroke="#080" stroke-width="0.25"/>
<circle cx="174.0" cy="82.0" r="1.0" fill="none" stroke="#080" stroke-width="0.25"/>
<circle cx="178.5" cy="82.0" r="1.0" fill="none" stroke="#080" stroke-width="0.25"/>
<circle cx="183.0" cy="82.0" r="1.0" fill="none" stroke="#080" stroke-width="0.25"/>
<circle cx="187.5" cy="82.0" r="1.0" fill="none" stroke="#080" stroke-width="0.25"/>
<circle cx="192.0" cy="82.0" r="1.0" fill="none" stroke="#080" stroke-width="0.25"/>
<circle cx="196.5" cy="82.0" r="1.0" fill="none" stroke="#080" stroke-width="0.25"/>
<circle cx="201.0" cy="82.0" r="1.0" fill="none" stroke="#080" stroke-width="0.25"/>
<circle cx="205.5" cy="82.0" r="1.0" fill="none" stroke="#080" stroke-width="0.25"/>
<circle cx="104.25" cy="85.89711431702997" r="1.0" fill="none" stroke="#080" stroke-width="0.25"/>
<circle cx="108.75" cy="85.89711431702997" r="1.0" fill="none" stroke="#080" stroke-width="0.25"/>
<circle cx="113.25" cy="85.89711431702997" r="1.0" fill="none" stroke="#080" stroke-width="0.25"/>
<circle cx="117.75" cy="85.89711431702997" r="1.0" fill="none" stroke="#080" stroke-width="0.25"/>
<circle cx="122.25" cy="85.89711431702997" r="1.0" fill="none" stroke="#080" stroke-width="0.25"/>
<circle cx="126.75" cy="85.89711431702997" r="1.0" fill="none" stroke="#080" stroke-width="0.25"/>
<circle cx="131.25" cy="85.89711431702997" r="1.0" fill="none" stroke="#080" stroke-width="0.25"/>
<circle cx="135.75" cy="85.89711431702997" r="1.0" fill="none" stroke="#080" stroke-width="0.25"/>
<circle cx="140.25" cy="85.89711431702997" r="1.0" fill="none" stroke="#080" stroke-width="0.25"/>
<circle cx="144.75" cy="85.89711431702997" r="1.0" fill="none" stroke="#080" stroke-width="0.25"/>
<circle cx="149.25" cy="85.89711431702997" r="1.0" fill="none" stroke="#080" stroke-width="0.25"/>
<circle cx="153.75" cy="85.89711431702997" r="1.0" fill="none" stroke="#080" stroke-width="0.25"/>
<circle cx="158.25" cy="85.89711431702997" r="1.0" fill="none" stroke="#080" stroke-width="0.25"/>
<circle cx="162.75" cy="85.89711431702997" r="1.0" fill="none" stroke="#080" stroke-width="0.25"/>
<circle cx="167.25" cy="85.89711431702997" r="1.0" fill="none" stroke="#080" stroke-width="0.25"/>
<circle cx="171.75" cy="85.89711431702997" r="1.0" fill="none" stroke="#080" stroke-width="0.25"/>
<circle cx="176.25" cy="85.89711431702997" r="1.0" fill="none" stroke="#080" stroke-width="0.25"/>
<circle cx="180.75" cy="85.89711431702997" r="1.0" fill="none" stroke="#080" stroke-width="0.25"/>
<circle cx="185.25" cy="85.89711431702997" r="1.0" fill="none" stroke="#080" stroke-width="0.25"/>
<circle cx="189.75" cy="85.89711431702997" r="1.0" fill="none" stroke="#080" stroke-width="0.25"/>
<circle cx="194.25" cy="85.89711431702997" r="1.0" fill="none" stroke="#080" stroke-width="0.25"/>
<circle cx="198.75" cy="85.89711431702997" r="1.0" fill="none" stroke="#080" stroke-width="0.25"/>
<circle cx="203.25" cy="85.89711431702997" r="1.0" fill="none" stroke="#080" stroke-width="0.25"/>
<circle cx="207.75" cy="85.89711431702997" r="1.0" fill="none" stroke="#080" stroke-width="0.25"/>
<circle cx="102.0" cy="89.79422863405995" r="1.0" fill="none" stroke="#080" stroke-width="0.25"/>
<circle cx="106.5" cy="89.79422863405995" r="1.0" fill="none" stroke="#080" stroke-width="0.25"/>
<circle cx="111.0" cy="89.79422863405995" r="1.0" fill="none" stroke="#080" stroke-width="0.25"/>
<circle cx="115.5" cy="89.79422863405995" r="1.0" fill="none" stroke="#080" stroke-width="0.25"/>
<circle cx="120.0" cy="89.79422863405995" r="1.0" fill="none" stroke="#080" stroke-width="0.25"/>
<circle cx="124.5" cy="89.79422863405995" r="1.0" fill="none" stroke="#080" stroke-width="0.25"/>
<circle cx="129.0" cy="89.79422863405995" r="1.0" fill="none" stroke="#080" stroke-width="0.25"/>
<circle cx="133.5" cy="89.79422863405995" r="1.0" fill="none" stroke="#080" stroke-width="0.25"/>
<circle cx="138.0" cy="89.79422863405995" r="1.0" fill="none" stroke="#080" stroke-width="0.25"/>
<circle cx="142.5" cy="89.79422863405995" r="1.0" fill="none" stroke="#080" stroke-width="0.25"/>
<circle cx="147.0" cy="89.79422863405995" r="1.0" fill="none" stroke="#080" stroke-width="0.25"/>
<circle cx="151.5" cy="89.79422863405995" r="1.0" fill="none" stroke="#080" stroke-width="0.25"/>
<circle cx="156.0" cy="89.79422863405995" r="1.0" fill="none" stroke="#080" stroke-width="0.25"/>
<circle cx="160.5" cy="89.79422863405995" r="1.0" fill="none" stroke="#080" stroke-width="0.25"/>
<circle cx="165.0" cy="89.79422863405995" r="1.0" fill="none" stroke="#080" stroke-width="0.25"/>
<circle cx="169.5" cy="89.79422863405995" r="1.0" fill="none" stroke="#080" stroke-width="0.25"/>
<circle cx="174.0" cy="89.79422863405995" r="1.0" fill="none" stroke="#080" stroke-width="0.25"/>
<circle cx="178.5" cy="89.79422863405995" r="1.0" fill="none" stroke="#080" stroke-width="0.25"/>
<circle cx="183.0" cy="89.79422863405995" r="1.0" fill="none" stroke="#080" stroke-width="0.25"/>
<circle cx="187.5" cy="89.79422863405995" r="1.0" fill="none" stroke="#080" stroke-width="0.25"/>
<circle cx="192.0" cy="89.79422863405995" r="1.0" fill="none" stroke="#080" stroke-width="0.25"/>
<circle cx="196.5" cy="89.79422863405995" r="1.0" fill="none" stroke="#080" stroke-width="0.25"/>
<circle cx="201.0" cy="89.79422863405995" r="1.0" fill="none" stroke="#080" stroke-width="0.25"/>
<circle cx="205.5" cy="89.79422863405995" r="1.0" fill="none" stroke="#080" stroke-width="0.25"/>
<circle cx="104.25" cy="93.69134295108992" r="1.0" fill="none" stroke="#080" stroke-width="0.25"/>
<circle cx="108.75" cy="93.69134295108992" r="1.0" fill="none" stroke="#080" stroke-width="0.25"/>
<circle cx="113.25" cy="93.69134295108992" r="1.0" fill="none" stroke="#080" stroke-width="0.25"/>
<circle cx="117.75" cy="93.69134295108992" r="1.0" fill="none" stroke="#080" stroke-width="0.25"/>
<circle cx="122.25" cy="93.69134295108992" r="1.0" fill="none" stroke="#080" stroke-width="0.25"/>
<circle cx="126.75" cy="93.69134295108992" r="1.0" fill="none" stroke="#080" stroke-width="0.25"/>
<circle cx="131.25" cy="93.69134295108992" r="1.0" fill="none" stroke="#080" stroke-width="0.25"/>
<circle cx="135.75" cy="93.69134295108992" r="1.0" fill="none" stroke="#080" stroke-width="0.25"/>
<circle cx="140.25" cy="93.69134295108992" r="1.0" fill="none" stroke="#080" stroke-width="0.25"/>
<circle cx="144.75" cy="93.69134295108992" r="1.0" fill="none" stroke="#080" stroke-width="0.25"/>
<circle cx="149.25" cy="93.69134295108992" r="1.0" fill="none" stroke="#080" stroke-width="0.25"/>
<circle cx="153.75" cy="93.69134295108992" r="1.0" fill="none" stroke="#080" stroke-width="0.25"/>
<circle cx="158.25" cy="93.69134295108992" r="1.0" fill="none" stroke="#080" stroke-width="0.25"/>
<circle cx="162.75" cy="93.69134295108992" r="1.0" fill="none" stroke="#080" stroke-width="0.25"/>
<circle cx="167.25" cy="93.69134295108992" r="1.0" fill="none" stroke="#080" stroke-width="0.25"/>
<circle cx="171.75" cy="93.69134295108992" r="1.0" fill="none" stroke="#080" stroke-width="0.25"/>
<circle cx="176.25" cy="93.69134295108992" r="1.0" fill="none" stroke="#080" stroke-width="0.25"/>
<circle cx="180.75" cy="93.69134295108992" r="1.0" fill="none" stroke="#080" stroke-width="0.25"/>
<circle cx="185.25" cy="93.69134295108992" r="1.0" fill="none" stroke="#080" stroke-width="0.25"/>
<circle cx="189.75" cy="93.69134295108992" r="1.0" fill="none" stroke="#080" stroke-width="0.25"/>
<circle cx="194.25" cy="93.69134295108992" r="1.0" fill="none" stroke="#080" stroke-width="0.25"/>
<circle cx="198.75" cy="93.69134295108992" r="1.0" fill="none" stroke="#080" stroke-width="0.25"/>
<circle cx="203.25" cy="93.69134295108992" r="1.0" fill="none" stroke="#080" stroke-width="0.25"/>
<circle cx="207.75" cy="93.69134295108992" r="1.0" fill="none" stroke="#080" stroke-width="0.25"/>
<circle cx="102.0" cy="97.5884572681199" r="1.0" fill="none" stroke="#080" stroke-width="0.25"/>
<circle cx="106.5" cy="97.5884572681199" r="1.0" fill="none" stroke="#080" stroke-width="0.25"/>
<circle cx="111.0" cy="97.5884572681199" r="1.0" fill="none" stroke="#080" stroke-width="0.25"/>
<circle cx="115.5" cy="97.5884572681199" r="1.0" fill="none" stroke="#080" stroke-width="0.25"/>
<circle cx="120.0" cy="97.5884572681199" r="1.0" fill="none" stroke="#080" stroke-width="0.25"/>
<circle cx="124.5" cy="97.5884572681199" r="1.0" fill="none" stroke="#080" stroke-width="0.25"/>
<circle cx="129.0" cy="97.5884572681199" r="1.0" fill="none" stroke="#080" stroke-width="0.25"/>
<circle cx="133.5" cy="97.5884572681199" r="1.0" fill="none" stroke="#080" stroke-width="0.25"/>
<circle cx="138.0" cy="97.5884572681199" r="1.0" fill="none" stroke="#080" stroke-width="0.25"/>
<circle cx="142.5" cy="97.5884572681199" r="1.0" fill="none" stroke="#080" stroke-width="0.25"/>
<circle cx="147.0" cy="97.5884572681199" r="1.0" fill="none" stroke="#080" stroke-width="0.25"/>
<circle cx="151.5" cy="97.5884572681199" r="1.0" fill="none" stroke="#080" stroke-width="0.25"/>
<circle cx="156.0" cy="97.5884572681199" r="1.0" fill="none" stroke="#080" stroke-width="0.25"/>
<circle cx="160.5" cy="97.5884572681199" r="1.0" fill="none" stroke="#080" stroke-width="0.25"/>
<circle cx="165.0" cy="97.5884572681199" r="1.0" fill="none" stroke="#080" stroke-width="0.25"/>
<circle cx="169.5" cy="97.5884572681199" r="1.0" fill="none" stroke="#080" stroke-width="0.25"/>
<circle cx="174.0" cy="97.5884572681199" r="1.0" fill="none" stroke="#080" stroke-width="0.25"/>
<circle cx="178.5" cy="97.5884572681199" r="1.0" fill="none" stroke="#080" stroke-width="0.25"/>
<circle cx="183.0" cy="97.5884572681199" r="1.0" fill="none" stroke="#080" stroke-width="0.25"/>
<circle cx="187.5" cy="97.5884572681199" r="1.0" fill="none" stroke="#080" stroke-width="0.25"/>
<circle cx="192.0" cy="97.5884572681199" r="1.0" fill="none" stroke="#080" stroke-width="0.25"/>
<circle cx="196.5" cy="97.5884572681199" r="1.0" fill="none" stroke="#080" stroke-width="0.25"/>
<circle cx="201.0" cy="97.5884572681199" r="1.0" fill="none" stroke="#080" stroke-width="0.25"/>
<circle cx="205.5" cy="97.5884572681199" r="1.0" fill="none" stroke="#080" stroke-width="0.25"/>
<circle cx="104.25" cy="101.48557158514987" r="1.0" fill="none" stroke="#080" stroke-width="0.25"/>
<circle cx="108.75" cy="101.48557158514987" r="1.0" fill="none" stroke="#080" stroke-width="0.25"/>
<circle cx="113.25" cy="101.48557158514987" r="1.0" fill="none" stroke="#080" stroke-width="0.25"/>
<circle cx="117.75" cy="101.48557158514987" r="1.0" fill="none" stroke="#080" stroke-width="0.25"/>
<circle cx="122.25" cy="101.48557158514987" r="1.0" fill="none" stroke="#080" stroke-width="0.25"/>
<circle cx="126.75" cy="101.48557158514987" r="1.0" fill="none" stroke="#080" stroke-width="0.25"/>
<circle cx="131.25" cy="101.48557158514987" r="1.0" fill="none" stroke="#080" stroke-width="0.25"/>
<circle cx="135.75" cy="101.48557158514987" r="1.0" fill="none" stroke="#080" stroke-width="0.25"/>
<circle cx="140.25" cy="101.48557158514987" r="1.0" fill="none" stroke="#080" stroke-width="0.25"/>
<circle cx="144.75" cy="101.48557158514987" r="1.0" fill="none" stroke="#080" stroke-width="0.25"/>
<circle cx="149.25" cy="101.48557158514987" r="1.0" fill="none" stroke="#080" stroke-width="0.25"/>
<circle cx="153.75" cy="101.48557158514987" r="1.0" fill="none" stroke="#080" stroke-width="0.25"/>
<circle cx="158.25" cy="101.48557158514987" r="1.0" fill="none" stroke="#080" stroke-width="0.25"/>
<circle cx="162.75" cy="101.48557158514987" r="1.0" fill="none" stroke="#080" stroke-width="0.25"/>
<circle cx="167.25" cy="101.48557158514987" r="1.0" fill="none" stroke="#080" stroke-width="0.25"/>
<circle cx="171.75" cy="101.48557158514987" r="1.0" fill="none" stroke="#080" stroke-width="0.25"/>
<circle cx="176.25" cy="101.48557158514987" r="1.0" fill="none" stroke="#080" stroke-width="0.25"/>
<circle cx="180.75" cy="101.48557158514987" r="1.0" fill="none" stroke="#080" stroke-width="0.25"/>
<circle cx="185.25" cy="101.48557158514987" r="1.0" fill="none" stroke="#080" stroke-width="0.25"/>
<circle cx="189.75" cy="101.48557158514987" r="1.0" fill="none" stroke="#080" stroke-width="0.25"/>
<circle cx="194.25" cy="101.48557158514987" r="1.0" fill="none" stroke="#080" stroke-width="0.25"/>
<circle cx="198.75" cy="101.48557158514987" r="1.0" fill="none" stroke="#080" stroke-width="0.25"/>
<circle cx="203.25" cy="101.48557158514987" r="1.0" fill="none" stroke="#080" stroke-width="0.25"/>
<circle cx="207.75" cy="101.48557158514987" r="1.0" fill="none" stroke="#080" stroke-width="0.25"/>
<circle cx="102.0" cy="105.38268590217984" r="1.0" fill="none" stroke="#080" stroke-width="0.25"/>
<circle cx="106.5" cy="105.38268590217984" r="1.0" fill="none" stroke="#080" stroke-width="0.25"/>
<circle cx="111.0" cy="105.38268590217984" r="1.0" fill="none" stroke="#080" stroke-width="0.25"/>
<circle cx="115.5" cy="105.38268590217984" r="1.0" fill="none" stroke="#080" stroke-width="0.25"/>
<circle cx="120.0" cy="105.38268590217984" r="1.0" fill="none" stroke="#080" stroke-width="0.25"/>
<circle cx="124.5" cy="105.38268590217984" r="1.0" fill="none" stroke="#080" stroke-width="0.25"/>
<circle cx="129.0" cy="105.38268590217984" r="1.0" fill="none" stroke="#080" stroke-width="0.25"/>
<circle cx="133.5" cy="105.38268590217984" r="1.0" fill="none" stroke="#080" stroke-width="0.25"/>
<circle cx="138.0" cy="105.38268590217984" r="1.0" fill="none" stroke="#080" stroke-width="0.25"/>
<circle cx="142.5" cy="105.38268590217984" r="1.0" fill="none" stroke="#080" stroke-width="0.25"/>
<circle cx="147.0" cy="105.38268590217984" r="1.0" fill="none" stroke="#080" stroke-width="0.25"/>
<circle cx="151.5" cy="105.38268590217984" r="1.0" fill="none" stroke="#080" stroke-width="0.25"/>
<circle cx="156.0" cy="105.38268590217984" r="1.0" fill="none" stroke="#080" stroke-width="0.25"/>
<circle cx="160.5" cy="105.38268590217984" r="1.0" fill="none" stroke="#080" stroke-width="0.25"/>
<circle cx="165.0" cy="105.38268590217984" r="1.0" fill="none" stroke="#080" stroke-width="0.25"/>
<circle cx="169.5" cy="105.38268590217984" r="1.0" fill="none" stroke="#080" stroke-width="0.25"/>
<circle cx="174.0" cy="105.38268590217984" r="1.0" fill="none" stroke="#080" stroke-width="0.25"/>
<circle cx="178.5" cy="105.38268590217984" r="1.0" fill="none" stroke="#080" stroke-width="0.25"/>
<circle cx="183.0" cy="105.38268590217984" r="1.0" fill="none" stroke="#080" stroke-width="0.25"/>
<circle cx="187.5" cy="105.38268590217984" r="1.0" fill="none" stroke="#080" stroke-width="0.25"/>
<circle cx="192.0" cy="105.38268590217984" r="1.0" fill="none" stroke="#080" stroke-width="0.25"/>
<circle cx="196.5" cy="105.38268590217984" r="1.0" fill="none" stroke="#080" stroke-width="0.25"/>
<circle cx="201.0" cy="105.38268590217984" r="1.0" fill="none" stroke="#080" stroke-width="0.25"/>
<circle cx="205.5" cy="105.38268590217984" r="1.0" fill="none" stroke="#080" stroke-width="0.25"/>
<circle cx="104.25" cy="109.27980021920982" r="1.0" fill="none" stroke="#080" stroke-width="0.25"/>
<circle cx="108.75" cy="109.27980021920982" r="1.0" fill="none" stroke="#080" stroke-width="0.25"/>
<circle cx="113.25" cy="109.27980021920982" r="1.0" fill="none" stroke="#080" stroke-width="0.25"/>
<circle cx="117.75" cy="109.27980021920982" r="1.0" fill="none" stroke="#080" stroke-width="0.25"/>
<circle cx="122.25" cy="109.27980021920982" r="1.0" fill="none" stroke="#080" stroke-width="0.25"/>
<circle cx="126.75" cy="109.27980021920982" r="1.0" fill="none" stroke="#080" stroke-width="0.25"/>
<circle cx="131.25" cy="109.27980021920982" r="1.0" fill="none" stroke="#080" stroke-width="0.25"/>
<circle cx="135.75" cy="109.27980021920982" r="1.0" fill="none" stroke="#080" stroke-width="0.25"/>
<circle cx="140.25" cy="109.27980021920982" r="1.0" fill="none" stroke="#080" stroke-width="0.25"/>
<circle cx="144.75" cy="109.27980021920982" r="1.0" fill="none" stroke="#080" stroke-width="0.25"/>
<circle cx="149.25" cy="109.27980021920982" r="1.0" fill="none" stroke="#080" stroke-width="0.25"/>
<circle cx="153.75" cy="109.27980021920982" r="1.0" fill="none" stroke="#080" stroke-width="0.25"/>
<circle cx="158.25" cy="109.27980021920982" r="1.0" fill="none" stroke="#080" stroke-width="0.25"/>
<circle cx="162.75" cy="109.27980021920982" r="1.0" fill="none" stroke="#080" stroke-width="0.25"/>
<circle cx="167.25" cy="109.27980021920982" r="1.0" fill="none" stroke="#080" stroke-width="0.25"/>
<circle cx="171.75" cy="109.27980021920982" r="1.0" fill="none" stroke="#080" stroke-width="0.25"/>
<circle cx="176.25" cy="109.27980021920982" r="1.0" fill="none" stroke="#080" stroke-width="0.25"/>
<circle cx="180.75" cy="109.27980021920982" r="1.0" fill="none" stroke="#080" stroke-width="0.25"/>
<circle cx="185.25" cy="109.27980021920982" r="1.0" fill="none" stroke="#080" stroke-width="0.25"/>
<circle cx="189.75" cy="109.27980021920982" r="1.0" fill="none" stroke="#080" stroke-width="0.25"/>
<circle cx="194.25" cy="109.27980021920982" r="1.0" fill="none" stroke="#080" stroke-width="0.25"/>
<circle cx="198.75" cy="109.27980021920982" r="1.0" fill="none" stroke="#080" stroke-width="0.25"/>
<circle cx="203.25" cy="109.27980021920982" r="1.0" fill="none" stroke="#080" stroke-width="0.25"/>
<circle cx="207.75" cy="109.27980021920982" r="1.0" fill="none" stroke="#080" stroke-width="0.25"/>
<circle cx="130.0" cy="124.0" r="3.7" fill="none" stroke="#c00" stroke-width="0.35"/>
<circle cx="160.0" cy="124.0" r="3.7" fill="none" stroke="#c00" stroke-width="0.35"/>
<circle cx="130.0" cy="142.0" r="3.7" fill="none" stroke="#c00" stroke-width="0.35"/>
<circle cx="160.0" cy="142.0" r="3.7" fill="none" stroke="#c00" stroke-width="0.35"/>
<circle cx="110.0" cy="157.0" r="1.7" fill="none" stroke="#c60" stroke-width="0.35"/>
<circle cx="190.0" cy="157.0" r="1.7" fill="none" stroke="#c60" stroke-width="0.35"/>
<circle cx="15.7" cy="180.0" r="1.7" fill="none" stroke="#c60" stroke-width="0.35"/>
<circle cx="15.7" cy="260.0" r="1.7" fill="none" stroke="#c60" stroke-width="0.35"/>
<circle cx="34.55" cy="180.0" r="1.7" fill="none" stroke="#c60" stroke-width="0.35"/>
<circle cx="34.55" cy="260.0" r="1.7" fill="none" stroke="#c60" stroke-width="0.35"/>
<circle cx="53.400000000000006" cy="180.0" r="1.7" fill="none" stroke="#c60" stroke-width="0.35"/>
<circle cx="53.400000000000006" cy="260.0" r="1.7" fill="none" stroke="#c60" stroke-width="0.35"/>
<circle cx="72.25" cy="180.0" r="1.7" fill="none" stroke="#c60" stroke-width="0.35"/>
<circle cx="72.25" cy="260.0" r="1.7" fill="none" stroke="#c60" stroke-width="0.35"/>
<circle cx="91.10000000000001" cy="180.0" r="1.7" fill="none" stroke="#c60" stroke-width="0.35"/>
<circle cx="91.10000000000001" cy="260.0" r="1.7" fill="none" stroke="#c60" stroke-width="0.35"/>
<circle cx="109.95" cy="180.0" r="1.7" fill="none" stroke="#c60" stroke-width="0.35"/>
<circle cx="109.95" cy="260.0" r="1.7" fill="none" stroke="#c60" stroke-width="0.35"/>
<circle cx="128.8" cy="180.0" r="1.7" fill="none" stroke="#c60" stroke-width="0.35"/>
<circle cx="128.8" cy="260.0" r="1.7" fill="none" stroke="#c60" stroke-width="0.35"/>
<circle cx="147.65" cy="180.0" r="1.7" fill="none" stroke="#c60" stroke-width="0.35"/>
<circle cx="147.65" cy="260.0" r="1.7" fill="none" stroke="#c60" stroke-width="0.35"/>
<circle cx="166.5" cy="180.0" r="1.7" fill="none" stroke="#c60" stroke-width="0.35"/>
<circle cx="166.5" cy="260.0" r="1.7" fill="none" stroke="#c60" stroke-width="0.35"/>
<circle cx="185.35" cy="180.0" r="1.7" fill="none" stroke="#c60" stroke-width="0.35"/>
<circle cx="185.35" cy="260.0" r="1.7" fill="none" stroke="#c60" stroke-width="0.35"/>
<circle cx="204.2" cy="180.0" r="1.7" fill="none" stroke="#c60" stroke-width="0.35"/>
<circle cx="204.2" cy="260.0" r="1.7" fill="none" stroke="#c60" stroke-width="0.35"/>
<text x="10" y="6.0" font-size="2.0" fill="#06c">OLED 256x64</text>
<text x="181" y="6.6" font-size="2.0" fill="#06c">NOW</text>
<text x="181" y="19.6" font-size="2.0" fill="#06c">LIST</text>
<text x="181" y="32.6" font-size="2.0" fill="#06c">QUEUE</text>
<text x="95.0" y="6.6" font-size="2.0" fill="#06c">VU</text>
<text x="9.8" y="46.0" font-size="2.2" fill="#06c">PREV</text>
<text x="27.3" y="46.0" font-size="2.2" fill="#06c">PLAY</text>
<text x="43.75" y="46.0" font-size="2.2" fill="#06c">PAUSE</text>
<text x="62.3" y="46.0" font-size="2.2" fill="#06c">STOP</text>
<text x="79.8" y="46.0" font-size="2.2" fill="#06c">NEXT</text>
<text x="97.3" y="46.0" font-size="2.2" fill="#06c">SHUF</text>
<text x="79.0" y="58.5" font-size="2.5" fill="#06c">VOLUME</text>
<text x="11" y="61.6" font-size="2.0" fill="#06c">LOOP</text>
<text x="38" y="61.6" font-size="2.0" fill="#06c">EQ</text>
<text x="65" y="61.6" font-size="2.0" fill="#06c">PRESET</text>
<text x="99.0" y="77.5" font-size="2.0" fill="#06c">SCROLL</text>
<text x="121.0" y="77.5" font-size="2.0" fill="#06c">MENU</text>
<text x="160.0" y="74.5" font-size="2.0" fill="#06c">L BAL R</text>
<text x="28.5" y="78.5" font-size="2.0" fill="#06c">HYPERPIXEL 4.0 SQUARE</text>
<text x="127.0" y="133.5" font-size="2.0" fill="#06c">HP</text>
<text x="157.0" y="133.5" font-size="2.0" fill="#06c">BRT</text>
<text x="127.0" y="151.5" font-size="2.0" fill="#06c">A</text>
<text x="157.0" y="151.5" font-size="2.0" fill="#06c">B</text>
<text x="119.0" y="163.5" font-size="2.5" fill="#06c">SEEK</text>
<text x="12.5" y="165.25" font-size="2.2" fill="#06c">PRE</text>
<text x="31.349999999999998" y="165.25" font-size="2.2" fill="#06c">60</text>
<text x="50.2" y="165.25" font-size="2.2" fill="#06c">170</text>
<text x="69.05" y="165.25" font-size="2.2" fill="#06c">310</text>
<text x="87.9" y="165.25" font-size="2.2" fill="#06c">600</text>
<text x="106.75" y="165.25" font-size="2.2" fill="#06c">1K</text>
<text x="125.60000000000001" y="165.25" font-size="2.2" fill="#06c">3K</text>
<text x="144.45000000000002" y="165.25" font-size="2.2" fill="#06c">6K</text>
<text x="163.3" y="165.25" font-size="2.2" fill="#06c">12K</text>
<text x="182.15" y="165.25" font-size="2.2" fill="#06c">14K</text>
<text x="201.0" y="165.25" font-size="2.2" fill="#06c">16K</text>
<text x="2" y="284.0" font-size="3.5" fill="#666">CONCEPT D (owner sketch) — 220 x 280 mm — left screen, grille+pots right, 10-band EQ</text>
<text x="2" y="289.0" font-size="2.5" fill="#666">EQ pitch 19.0 · fader slots 62x3 / M3 span 80 · screen win 73x73 · VERIFY-marked dims vs datasheets before cutting</text>
</svg>