<svg xmlns="http://www.w3.org/2000/svg" width="127.0mm" height="266.0mm" viewBox="0 0 127.0 266.0" font-family="monospace">
<rect x="0" y="0" width="127.0" height="252.0" rx="4.0" fill="none" stroke="#222" stroke-width="0.5"/>
<rect x="9" y="7.5" width="78.0" height="20.5" fill="none" stroke="#c00" stroke-width="0.35"/>
<rect x="4.0" y="3.8499999999999996" width="88.0" height="27.8" fill="none" stroke="#999" stroke-width="0.25" stroke-dasharray="1.5 1"/>
<rect x="94" y="8.0" width="28" height="9" fill="none" stroke="#c00" stroke-width="0.35"/>
<rect x="94" y="21.0" width="28" height="9" fill="none" stroke="#c00" stroke-width="0.35"/>
<rect x="94" y="34.0" width="28" height="9" fill="none" stroke="#c00" stroke-width="0.35"/>
<rect x="12.5" y="52.75" width="47.0" height="2.5" fill="none" stroke="#c00" stroke-width="0.35"/>
<rect x="6.0" y="49.5" width="60.0" height="9.0" fill="none" stroke="#999" stroke-width="0.25" stroke-dasharray="1.5 1"/>
<rect x="70.5" y="52.75" width="47.0" height="2.5" fill="none" stroke="#c00" stroke-width="0.35"/>
<rect x="64.0" y="49.5" width="60.0" height="9.0" fill="none" stroke="#999" stroke-width="0.25" stroke-dasharray="1.5 1"/>
<rect x="12" y="66.0" width="30" height="10" fill="none" stroke="#c00" stroke-width="0.35"/>
<rect x="50" y="66.0" width="30" height="10" fill="none" stroke="#c00" stroke-width="0.35"/>
<rect x="88" y="66.0" width="30" height="10" fill="none" stroke="#c00" stroke-width="0.35"/>
<rect x="27.0" y="82.0" width="73.0" height="73.0" fill="none" stroke="#c00" stroke-width="0.35"/>
<rect x="24.0" y="79.0" width="79.0" height="79.0" fill="none" stroke="#06c" stroke-width="0.2"/>
<rect x="21.0" y="75.75" width="85.0" height="85.5" fill="none" stroke="#999" stroke-width="0.25" stroke-dasharray="1.5 1"/>
<rect x="32.5" y="170.5" width="62.0" height="3.0" fill="none" stroke="#c00" stroke-width="0.35"/>
<rect x="10.25" y="162.75" width="106.5" height="18.5" fill="none" stroke="#999" stroke-width="0.25" stroke-dasharray="1.5 1"/>
<rect x="8.25" y="190.0" width="2.5" height="47.0" fill="none" stroke="#c00" stroke-width="0.35"/>
<rect x="5.0" y="183.5" width="9.0" height="60.0" fill="none" stroke="#999" stroke-width="0.25" stroke-dasharray="1.5 1"/>
<rect x="19.05" y="190.0" width="2.5" height="47.0" fill="none" stroke="#c00" stroke-width="0.35"/>
<rect x="15.8" y="183.5" width="9.0" height="60.0" fill="none" stroke="#999" stroke-width="0.25" stroke-dasharray="1.5 1"/>
<rect x="29.85" y="190.0" width="2.5" height="47.0" fill="none" stroke="#c00" stroke-width="0.35"/>
<rect x="26.6" y="183.5" width="9.0" height="60.0" fill="none" stroke="#999" stroke-width="0.25" stroke-dasharray="1.5 1"/>
<rect x="40.650000000000006" y="190.0" width="2.5" height="47.0" fill="none" stroke="#c00" stroke-width="0.35"/>
<rect x="37.400000000000006" y="183.5" width="9.0" height="60.0" fill="none" stroke="#999" stroke-width="0.25" stroke-dasharray="1.5 1"/>
<rect x="51.45" y="190.0" width="2.5" height="47.0" fill="none" stroke="#c00" stroke-width="0.35"/>
<rect x="48.2" y="183.5" width="9.0" height="60.0" fill="none" stroke="#999" stroke-width="0.25" stroke-dasharray="1.5 1"/>
<rect x="62.25" y="190.0" width="2.5" height="47.0" fill="none" stroke="#c00" stroke-width="0.35"/>
<rect x="59.0" y="183.5" width="9.0" height="60.0" fill="none" stroke="#999" stroke-width="0.25" stroke-dasharray="1.5 1"/>
<rect x="73.05000000000001" y="190.0" width="2.5" height="47.0" fill="none" stroke="#c00" stroke-width="0.35"/>
<rect x="69.80000000000001" y="183.5" width="9.0" height="60.0" fill="none" stroke="#999" stroke-width="0.25" stroke-dasharray="1.5 1"/>
<rect x="83.85000000000001" y="190.0" width="2.5" height="47.0" fill="none" stroke="#c00" stroke-width="0.35"/>
<rect x="80.60000000000001" y="183.5" width="9.0" height="60.0" fill="none" stroke="#999" stroke-width="0.25" stroke-dasharray="1.5 1"/>
<rect x="94.65" y="190.0" width="2.5" height="47.0" fill="none" stroke="#c00" stroke-width="0.35"/>
<rect x="91.4" y="183.5" width="9.0" height="60.0" fill="none" stroke="#999" stroke-width="0.25" stroke-dasharray="1.5 1"/>
<rect x="105.45" y="190.0" width="2.5" height="47.0" fill="none" stroke="#c00" stroke-width="0.35"/>
<rect x="102.2" y="183.5" width="9.0" height="60.0" fill="none" stroke="#999" stroke-width="0.25" stroke-dasharray="1.5 1"/>
<rect x="116.25" y="190.0" width="2.5" height="47.0" fill="none" stroke="#c00" stroke-width="0.35"/>
<rect x="113.0" y="183.5" width="9.0" height="60.0" fill="none" stroke="#999" stroke-width="0.25" stroke-dasharray="1.5 1"/>
<circle cx="12.0" cy="39.0" r="6.5" fill="none" stroke="#c00" stroke-width="0.35"/>
<circle cx="29.0" cy="39.0" r="6.5" fill="none" stroke="#c00" stroke-width="0.35"/>
<circle cx="46.0" cy="39.0" r="6.5" fill="none" stroke="#c00" stroke-width="0.35"/>
<circle cx="63.0" cy="39.0" r="6.5" fill="none" stroke="#c00" stroke-width="0.35"/>
<circle cx="80.0" cy="39.0" r="6.5" fill="none" stroke="#c00" stroke-width="0.35"/>
<circle cx="9.0" cy="54.0" r="1.2" fill="none" stroke="#c60" stroke-width="0.35"/>
<circle cx="63.0" cy="54.0" r="1.2" fill="none" stroke="#c60" stroke-width="0.35"/>
<circle cx="67.0" cy="54.0" r="1.2" fill="none" stroke="#c60" stroke-width="0.35"/>
<circle cx="121.0" cy="54.0" r="1.2" fill="none" stroke="#c60" stroke-width="0.35"/>
<circle cx="23.5" cy="172.0" r="1.7" fill="none" stroke="#c60" stroke-width="0.35"/>
<circle cx="103.5" cy="172.0" r="1.7" fill="none" stroke="#c60" stroke-width="0.35"/>
<circle cx="9.5" cy="186.5" r="1.2" fill="none" stroke="#c60" stroke-width="0.35"/>
<circle cx="9.5" cy="240.5" r="1.2" fill="none" stroke="#c60" stroke-width="0.35"/>
<circle cx="20.3" cy="186.5" r="1.2" fill="none" stroke="#c60" stroke-width="0.35"/>
<circle cx="20.3" cy="240.5" r="1.2" fill="none" stroke="#c60" stroke-width="0.35"/>
<circle cx="31.1" cy="186.5" r="1.2" fill="none" stroke="#c60" stroke-width="0.35"/>
<circle cx="31.1" cy="240.5" r="1.2" fill="none" stroke="#c60" stroke-width="0.35"/>
<circle cx="41.900000000000006" cy="186.5" r="1.2" fill="none" stroke="#c60" stroke-width="0.35"/>
<circle cx="41.900000000000006" cy="240.5" r="1.2" fill="none" stroke="#c60" stroke-width="0.35"/>
<circle cx="52.7" cy="186.5" r="1.2" fill="none" stroke="#c60" stroke-width="0.35"/>
<circle cx="52.7" cy="240.5" r="1.2" fill="none" stroke="#c60" stroke-width="0.35"/>
<circle cx="63.5" cy="186.5" r="1.2" fill="none" stroke="#c60" stroke-width="0.35"/>
<circle cx="63.5" cy="240.5" r="1.2" fill="none" stroke="#c60" stroke-width="0.35"/>
<circle cx="74.30000000000001" cy="186.5" r="1.2" fill="none" stroke="#c60" stroke-width="0.35"/>
<circle cx="74.30000000000001" cy="240.5" r="1.2" fill="none" stroke="#c60" stroke-width="0.35"/>
<circle cx="85.10000000000001" cy="186.5" r="1.2" fill="none" stroke="#c60" stroke-width="0.35"/>
<circle cx="85.10000000000001" cy="240.5" r="1.2" fill="none" stroke="#c60" stroke-width="0.35"/>
<circle cx="95.9" cy="186.5" r="1.2" fill="none" stroke="#c60" stroke-width="0.35"/>
<circle cx="95.9" cy="240.5" r="1.2" fill="none" stroke="#c60" stroke-width="0.35"/>
<circle cx="106.7" cy="186.5" r="1.2" fill="none" stroke="#c60" stroke-width="0.35"/>
<circle cx="106.7" cy="240.5" r="1.2" fill="none" stroke="#c60" stroke-width="0.35"/>
<circle cx="117.5" cy="186.5" r="1.2" fill="none" stroke="#c60" stroke-width="0.35"/>
<circle cx="117.5" cy="240.5" r="1.2" fill="none" stroke="#c60" stroke-width="0.35"/>
<text x="9" y="6.0" font-size="2.0" fill="#06c">OLED 256x64</text>
<text x="95.5" y="14.5" font-size="2.0" fill="#06c">SHUFFLE</text>
<text x="95.5" y="27.5" font-size="2.0" fill="#06c">LOOP</text>
<text x="95.5" y="40.5" font-size="2.0" fill="#06c">PRESET</text>
<text x="7.8" y="48.5" font-size="2.2" fill="#06c">PREV</text>
<text x="24.8" y="48.5" font-size="2.2" fill="#06c">PLAY</text>
<text x="40.75" y="48.5" font-size="2.2" fill="#06c">PAUSE</text>
<text x="58.8" y="48.5" font-size="2.2" fill="#06c">STOP</text>
<text x="75.8" y="48.5" font-size="2.2" fill="#06c">NEXT</text>
<text x="12.5" y="59.5" font-size="2.0" fill="#06c">VOLUME</text>
<text x="70.5" y="59.5" font-size="2.0" fill="#06c">L  BAL  R</text>
<text x="13.5" y="73.0" font-size="1.8" fill="#06c">NOW PLAYING</text>
<text x="51.5" y="73.0" font-size="1.8" fill="#06c">PLAYLISTS</text>
<text x="89.5" y="73.0" font-size="1.8" fill="#06c">QUEUE</text>
<text x="32.5" y="178.5" font-size="2.5" fill="#06c">SEEK</text>
<text x="6.9" y="243.0" font-size="1.8" fill="#06c">PRE</text>
<text x="17.7" y="243.0" font-size="1.8" fill="#06c">60</text>
<text x="28.5" y="243.0" font-size="1.8" fill="#06c">170</text>
<text x="39.300000000000004" y="243.0" font-size="1.8" fill="#06c">310</text>
<text x="50.1" y="243.0" font-size="1.8" fill="#06c">600</text>
<text x="60.9" y="243.0" font-size="1.8" fill="#06c">1K</text>
<text x="71.70000000000002" y="243.0" font-size="1.8" fill="#06c">3K</text>
<text x="82.50000000000001" y="243.0" font-size="1.8" fill="#06c">6K</text>
<text x="93.30000000000001" y="243.0" font-size="1.8" fill="#06c">12K</text>
<text x="104.10000000000001" y="243.0" font-size="1.8" fill="#06c">14K</text>
<text x="114.9" y="243.0" font-size="1.8" fill="#06c">16K</text>
<text x="2" y="256.0" font-size="3.0" fill="#666">YANKO-FINAL — 127 x 252 mm — PRE+10-band slim pots, ONE motorized fader (seek)</text>
<text x="2" y="261.0" font-size="2.5" fill="#666">EQ pitch 19.0 · fader slots 62x3 / M3 span 80 · screen win 73x73 · VERIFY-marked dims vs datasheets before cutting</text>
</svg>