<svg xmlns="http://www.w3.org/2000/svg" width="127.0mm" height="314.0mm" viewBox="0 0 127.0 314.0" font-family="monospace">
<rect x="0" y="0" width="127.0" height="300.0" rx="4.0" fill="none" stroke="#222" stroke-width="0.5"/>
<rect x="9" y="7.5" width="78.0" height="20.5" fill="none" stroke="#c00" stroke-width="0.35"/>
<rect x="4.0" y="3.8499999999999996" width="88.0" height="27.8" fill="none" stroke="#999" stroke-width="0.25" stroke-dasharray="1.5 1"/>
<rect x="94" y="8.0" width="28" height="9" fill="none" stroke="#c00" stroke-width="0.35"/>
<rect x="94" y="21.0" width="28" height="9" fill="none" stroke="#c00" stroke-width="0.35"/>
<rect x="94" y="34.0" width="28" height="9" fill="none" stroke="#c00" stroke-width="0.35"/>
<rect x="29.0" y="50.5" width="62.0" height="3.0" fill="none" stroke="#c00" stroke-width="0.35"/>
<rect x="6.75" y="42.75" width="106.5" height="18.5" fill="none" stroke="#999" stroke-width="0.25" stroke-dasharray="1.5 1"/>
<rect x="12" y="66.0" width="30" height="10" fill="none" stroke="#c00" stroke-width="0.35"/>
<rect x="50" y="66.0" width="30" height="10" fill="none" stroke="#c00" stroke-width="0.35"/>
<rect x="88" y="66.0" width="30" height="10" fill="none" stroke="#c00" stroke-width="0.35"/>
<rect x="27.0" y="82.0" width="73.0" height="73.0" fill="none" stroke="#c00" stroke-width="0.35"/>
<rect x="24.0" y="79.0" width="79.0" height="79.0" fill="none" stroke="#06c" stroke-width="0.2"/>
<rect x="21.0" y="75.75" width="85.0" height="85.5" fill="none" stroke="#999" stroke-width="0.25" stroke-dasharray="1.5 1"/>
<rect x="32.5" y="170.5" width="62.0" height="3.0" fill="none" stroke="#c00" stroke-width="0.35"/>
<rect x="10.25" y="162.75" width="106.5" height="18.5" fill="none" stroke="#999" stroke-width="0.25" stroke-dasharray="1.5 1"/>
<rect x="16.0" y="212.0" width="3.0" height="62.0" fill="none" stroke="#c00" stroke-width="0.35"/>
<rect x="8.25" y="189.75" width="18.5" height="106.5" fill="none" stroke="#999" stroke-width="0.25" stroke-dasharray="1.5 1"/>
<rect x="39.0" y="212.0" width="3.0" height="62.0" fill="none" stroke="#c00" stroke-width="0.35"/>
<rect x="31.25" y="189.75" width="18.5" height="106.5" fill="none" stroke="#999" stroke-width="0.25" stroke-dasharray="1.5 1"/>
<rect x="62.0" y="212.0" width="3.0" height="62.0" fill="none" stroke="#c00" stroke-width="0.35"/>
<rect x="54.25" y="189.75" width="18.5" height="106.5" fill="none" stroke="#999" stroke-width="0.25" stroke-dasharray="1.5 1"/>
<rect x="85.0" y="212.0" width="3.0" height="62.0" fill="none" stroke="#c00" stroke-width="0.35"/>
<rect x="77.25" y="189.75" width="18.5" height="106.5" fill="none" stroke="#999" stroke-width="0.25" stroke-dasharray="1.5 1"/>
<rect x="108.0" y="212.0" width="3.0" height="62.0" fill="none" stroke="#c00" stroke-width="0.35"/>
<rect x="100.25" y="189.75" width="18.5" height="106.5" fill="none" stroke="#999" stroke-width="0.25" stroke-dasharray="1.5 1"/>
<circle cx="12.0" cy="39.0" r="6.5" fill="none" stroke="#c00" stroke-width="0.35"/>
<circle cx="29.0" cy="39.0" r="6.5" fill="none" stroke="#c00" stroke-width="0.35"/>
<circle cx="46.0" cy="39.0" r="6.5" fill="none" stroke="#c00" stroke-width="0.35"/>
<circle cx="63.0" cy="39.0" r="6.5" fill="none" stroke="#c00" stroke-width="0.35"/>
<circle cx="80.0" cy="39.0" r="6.5" fill="none" stroke="#c00" stroke-width="0.35"/>
<circle cx="20.0" cy="52.0" r="1.7" fill="none" stroke="#c60" stroke-width="0.35"/>
<circle cx="100.0" cy="52.0" r="1.7" fill="none" stroke="#c60" stroke-width="0.35"/>
<circle cx="23.5" cy="172.0" r="1.7" fill="none" stroke="#c60" stroke-width="0.35"/>
<circle cx="103.5" cy="172.0" r="1.7" fill="none" stroke="#c60" stroke-width="0.35"/>
<circle cx="17.5" cy="203.0" r="1.7" fill="none" stroke="#c60" stroke-width="0.35"/>
<circle cx="17.5" cy="283.0" r="1.7" fill="none" stroke="#c60" stroke-width="0.35"/>
<circle cx="40.5" cy="203.0" r="1.7" fill="none" stroke="#c60" stroke-width="0.35"/>
<circle cx="40.5" cy="283.0" r="1.7" fill="none" stroke="#c60" stroke-width="0.35"/>
<circle cx="63.5" cy="203.0" r="1.7" fill="none" stroke="#c60" stroke-width="0.35"/>
<circle cx="63.5" cy="283.0" r="1.7" fill="none" stroke="#c60" stroke-width="0.35"/>
<circle cx="86.5" cy="203.0" r="1.7" fill="none" stroke="#c60" stroke-width="0.35"/>
<circle cx="86.5" cy="283.0" r="1.7" fill="none" stroke="#c60" stroke-width="0.35"/>
<circle cx="109.5" cy="203.0" r="1.7" fill="none" stroke="#c60" stroke-width="0.35"/>
<circle cx="109.5" cy="283.0" r="1.7" fill="none" stroke="#c60" stroke-width="0.35"/>
<text x="9" y="6.0" font-size="2.0" fill="#06c">OLED 256x64</text>
<text x="95.5" y="14.5" font-size="2.0" fill="#06c">SHUFFLE</text>
<text x="95.5" y="27.5" font-size="2.0" fill="#06c">LOOP</text>
<text x="95.5" y="40.5" font-size="2.0" fill="#06c">PRESET</text>
<text x="7.8" y="48.5" font-size="2.2" fill="#06c">PREV</text>
<text x="24.8" y="48.5" font-size="2.2" fill="#06c">PLAY</text>
<text x="40.75" y="48.5" font-size="2.2" fill="#06c">PAUSE</text>
<text x="58.8" y="48.5" font-size="2.2" fill="#06c">STOP</text>
<text x="75.8" y="48.5" font-size="2.2" fill="#06c">NEXT</text>
<text x="29.0" y="58.5" font-size="2.5" fill="#06c">VOLUME</text>
<text x="13.5" y="73.0" font-size="1.8" fill="#06c">NOW PLAYING</text>
<text x="51.5" y="73.0" font-size="1.8" fill="#06c">PLAYLISTS</text>
<text x="89.5" y="73.0" font-size="1.8" fill="#06c">QUEUE</text>
<text x="32.5" y="178.5" font-size="2.5" fill="#06c">SEEK</text>
<text x="14.3" y="188.25" font-size="2.2" fill="#06c">60</text>
<text x="37.3" y="188.25" font-size="2.2" fill="#06c">400</text>
<text x="60.3" y="188.25" font-size="2.2" fill="#06c">2K4</text>
<text x="83.3" y="188.25" font-size="2.2" fill="#06c">15K</text>
<text x="106.3" y="188.25" font-size="2.2" fill="#06c">PRE</text>
<text x="2" y="304.0" font-size="3.0" fill="#666">COMPACT — 127 x 300 mm — the approved aesthetic at honest dimensions; 5 motorized slots (RS60N). If 45mm faders sample well: 7-8 slots at ~H265.</text>
<text x="2" y="309.0" font-size="2.5" fill="#666">EQ pitch 19.0 · fader slots 62x3 / M3 span 80 · screen win 73x73 · VERIFY-marked dims vs datasheets before cutting</text>
</svg>