<svg xmlns="http://www.w3.org/2000/svg" width="127.0mm" height="269.0mm" viewBox="0 0 127.0 269.0" font-family="monospace">
<rect x="0" y="0" width="127.0" height="255.0" rx="4.0" fill="none" stroke="#222" stroke-width="0.5"/>
<rect x="3.5" y="3.5" width="89.2" height="44.0" fill="none" stroke="#999" stroke-width="0.25" stroke-dasharray="1.5 1"/>
<rect x="10.5" y="16.5" width="26.0" height="17.5" fill="none" stroke="#c00" stroke-width="0.35"/>
<rect x="40.0" y="16.5" width="44.5" height="7.5" fill="none" stroke="#c00" stroke-width="0.35"/>
<rect x="40.0" y="26.0" width="13.0" height="6.0" fill="none" stroke="#c00" stroke-width="0.35"/>
<rect x="56.0" y="26.0" width="13.0" height="6.0" fill="none" stroke="#c00" stroke-width="0.35"/>
<rect x="10.0" y="51.75" width="47.0" height="2.5" fill="none" stroke="#c00" stroke-width="0.35"/>
<rect x="3.5" y="48.5" width="60.0" height="9.0" fill="none" stroke="#999" stroke-width="0.25" stroke-dasharray="1.5 1"/>
<rect x="72.0" y="51.75" width="22.0" height="2.5" fill="none" stroke="#c00" stroke-width="0.35"/>
<rect x="20.0" y="64.75" width="87.0" height="2.5" fill="none" stroke="#c00" stroke-width="0.35"/>
<rect x="3.5" y="59.0" width="120.0" height="14.0" fill="none" stroke="#999" stroke-width="0.25" stroke-dasharray="1.5 1"/>
<rect x="9.0" y="77.0" width="13.0" height="9.0" fill="none" stroke="#c00" stroke-width="0.35"/>
<rect x="24.0" y="77.0" width="13.0" height="9.0" fill="none" stroke="#c00" stroke-width="0.35"/>
<rect x="39.0" y="77.0" width="13.0" height="9.0" fill="none" stroke="#c00" stroke-width="0.35"/>
<rect x="54.0" y="77.0" width="13.0" height="9.0" fill="none" stroke="#c00" stroke-width="0.35"/>
<rect x="69.0" y="77.0" width="13.0" height="9.0" fill="none" stroke="#c00" stroke-width="0.35"/>
<rect x="85.0" y="77.0" width="20.0" height="9.0" fill="none" stroke="#c00" stroke-width="0.35"/>
<rect x="107.5" y="77.0" width="15.0" height="9.0" fill="none" stroke="#c00" stroke-width="0.35"/>
<rect x="27.0" y="94.0" width="73.0" height="73.0" fill="none" stroke="#c00" stroke-width="0.35"/>
<rect x="24.0" y="91.0" width="79.0" height="79.0" fill="none" stroke="#06c" stroke-width="0.2"/>
<rect x="21.0" y="87.75" width="85.0" height="85.5" fill="none" stroke="#999" stroke-width="0.25" stroke-dasharray="1.5 1"/>
<rect x="10.0" y="174.0" width="16.0" height="8.0" fill="none" stroke="#c00" stroke-width="0.35"/>
<rect x="29.0" y="174.0" width="16.0" height="8.0" fill="none" stroke="#c00" stroke-width="0.35"/>
<rect x="98.0" y="174.0" width="24.0" height="8.0" fill="none" stroke="#c00" stroke-width="0.35"/>
<rect x="13.25" y="191.0" width="2.5" height="47.0" fill="none" stroke="#c00" stroke-width="0.35"/>
<rect x="10.0" y="184.5" width="9.0" height="60.0" fill="none" stroke="#999" stroke-width="0.25" stroke-dasharray="1.5 1"/>
<rect x="23.65" y="191.0" width="2.5" height="47.0" fill="none" stroke="#c00" stroke-width="0.35"/>
<rect x="20.4" y="184.5" width="9.0" height="60.0" fill="none" stroke="#999" stroke-width="0.25" stroke-dasharray="1.5 1"/>
<rect x="34.05" y="191.0" width="2.5" height="47.0" fill="none" stroke="#c00" stroke-width="0.35"/>
<rect x="30.799999999999997" y="184.5" width="9.0" height="60.0" fill="none" stroke="#999" stroke-width="0.25" stroke-dasharray="1.5 1"/>
<rect x="44.45" y="191.0" width="2.5" height="47.0" fill="none" stroke="#c00" stroke-width="0.35"/>
<rect x="41.2" y="184.5" width="9.0" height="60.0" fill="none" stroke="#999" stroke-width="0.25" stroke-dasharray="1.5 1"/>
<rect x="54.85" y="191.0" width="2.5" height="47.0" fill="none" stroke="#c00" stroke-width="0.35"/>
<rect x="51.6" y="184.5" width="9.0" height="60.0" fill="none" stroke="#999" stroke-width="0.25" stroke-dasharray="1.5 1"/>
<rect x="65.25" y="191.0" width="2.5" height="47.0" fill="none" stroke="#c00" stroke-width="0.35"/>
<rect x="62.0" y="184.5" width="9.0" height="60.0" fill="none" stroke="#999" stroke-width="0.25" stroke-dasharray="1.5 1"/>
<rect x="75.65" y="191.0" width="2.5" height="47.0" fill="none" stroke="#c00" stroke-width="0.35"/>
<rect x="72.4" y="184.5" width="9.0" height="60.0" fill="none" stroke="#999" stroke-width="0.25" stroke-dasharray="1.5 1"/>
<rect x="86.05" y="191.0" width="2.5" height="47.0" fill="none" stroke="#c00" stroke-width="0.35"/>
<rect x="82.8" y="184.5" width="9.0" height="60.0" fill="none" stroke="#999" stroke-width="0.25" stroke-dasharray="1.5 1"/>
<rect x="96.45" y="191.0" width="2.5" height="47.0" fill="none" stroke="#c00" stroke-width="0.35"/>
<rect x="93.2" y="184.5" width="9.0" height="60.0" fill="none" stroke="#999" stroke-width="0.25" stroke-dasharray="1.5 1"/>
<rect x="106.85000000000001" y="191.0" width="2.5" height="47.0" fill="none" stroke="#c00" stroke-width="0.35"/>
<rect x="103.60000000000001" y="184.5" width="9.0" height="60.0" fill="none" stroke="#999" stroke-width="0.25" stroke-dasharray="1.5 1"/>
<rect x="117.25" y="191.0" width="2.5" height="47.0" fill="none" stroke="#c00" stroke-width="0.35"/>
<rect x="114.0" y="184.5" width="9.0" height="60.0" fill="none" stroke="#999" stroke-width="0.25" stroke-dasharray="1.5 1"/>
<circle cx="98.0" cy="20.0" r="3.0" fill="none" stroke="#c00" stroke-width="0.35"/>
<circle cx="109.0" cy="20.0" r="3.0" fill="none" stroke="#c00" stroke-width="0.35"/>
<circle cx="120.0" cy="20.0" r="3.0" fill="none" stroke="#c00" stroke-width="0.35"/>
<circle cx="6.5" cy="53.0" r="1.2" fill="none" stroke="#c60" stroke-width="0.35"/>
<circle cx="60.5" cy="53.0" r="1.2" fill="none" stroke="#c60" stroke-width="0.35"/>
<circle cx="68.5" cy="53.0" r="1.2" fill="none" stroke="#c60" stroke-width="0.35"/>
<circle cx="97.5" cy="53.0" r="1.2" fill="none" stroke="#c60" stroke-width="0.35"/>
<circle cx="14.0" cy="66.0" r="1.45" fill="none" stroke="#c60" stroke-width="0.35"/>
<circle cx="113.0" cy="66.0" r="1.45" fill="none" stroke="#c60" stroke-width="0.35"/>
<circle cx="14.5" cy="187.5" r="1.2" fill="none" stroke="#c60" stroke-width="0.35"/>
<circle cx="14.5" cy="241.5" r="1.2" fill="none" stroke="#c60" stroke-width="0.35"/>
<circle cx="24.9" cy="187.5" r="1.2" fill="none" stroke="#c60" stroke-width="0.35"/>
<circle cx="24.9" cy="241.5" r="1.2" fill="none" stroke="#c60" stroke-width="0.35"/>
<circle cx="35.3" cy="187.5" r="1.2" fill="none" stroke="#c60" stroke-width="0.35"/>
<circle cx="35.3" cy="241.5" r="1.2" fill="none" stroke="#c60" stroke-width="0.35"/>
<circle cx="45.7" cy="187.5" r="1.2" fill="none" stroke="#c60" stroke-width="0.35"/>
<circle cx="45.7" cy="241.5" r="1.2" fill="none" stroke="#c60" stroke-width="0.35"/>
<circle cx="56.1" cy="187.5" r="1.2" fill="none" stroke="#c60" stroke-width="0.35"/>
<circle cx="56.1" cy="241.5" r="1.2" fill="none" stroke="#c60" stroke-width="0.35"/>
<circle cx="66.5" cy="187.5" r="1.2" fill="none" stroke="#c60" stroke-width="0.35"/>
<circle cx="66.5" cy="241.5" r="1.2" fill="none" stroke="#c60" stroke-width="0.35"/>
<circle cx="76.9" cy="187.5" r="1.2" fill="none" stroke="#c60" stroke-width="0.35"/>
<circle cx="76.9" cy="241.5" r="1.2" fill="none" stroke="#c60" stroke-width="0.35"/>
<circle cx="87.3" cy="187.5" r="1.2" fill="none" stroke="#c60" stroke-width="0.35"/>
<circle cx="87.3" cy="241.5" r="1.2" fill="none" stroke="#c60" stroke-width="0.35"/>
<circle cx="97.7" cy="187.5" r="1.2" fill="none" stroke="#c60" stroke-width="0.35"/>
<circle cx="97.7" cy="241.5" r="1.2" fill="none" stroke="#c60" stroke-width="0.35"/>
<circle cx="108.10000000000001" cy="187.5" r="1.2" fill="none" stroke="#c60" stroke-width="0.35"/>
<circle cx="108.10000000000001" cy="241.5" r="1.2" fill="none" stroke="#c60" stroke-width="0.35"/>
<circle cx="118.5" cy="187.5" r="1.2" fill="none" stroke="#c60" stroke-width="0.35"/>
<circle cx="118.5" cy="241.5" r="1.2" fill="none" stroke="#c60" stroke-width="0.35"/>
<text x="43.0" y="36.5" font-size="1.6" fill="#06c">KBPS</text>
<text x="59.0" y="36.5" font-size="1.6" fill="#06c">KHZ</text>
<text x="95.5" y="29.5" font-size="1.8" fill="#06c">NOW</text>
<text x="106.5" y="29.5" font-size="1.8" fill="#06c">PL</text>
<text x="117.5" y="29.5" font-size="1.8" fill="#06c">QUE</text>
<text x="5.5" y="51.5" font-size="2.5" fill="#06c">-</text>
<text x="59.5" y="51.5" font-size="2.5" fill="#06c">+</text>
<text x="66.0" y="51.5" font-size="2.0" fill="#06c">L</text>
<text x="100.0" y="51.5" font-size="2.0" fill="#06c">R</text>
<text x="106.0" y="51.0" font-size="2.8" fill="#06c">SpotAmp</text>
<text x="10.0" y="61.0" font-size="1.8" fill="#06c">SEEK</text>
<text x="10.5" y="90.0" font-size="2.0" fill="#06c">|<</text>
<text x="25.5" y="90.0" font-size="2.0" fill="#06c">></text>
<text x="40.5" y="90.0" font-size="2.0" fill="#06c">||</text>
<text x="55.5" y="90.0" font-size="2.0" fill="#06c">[]</text>
<text x="70.5" y="90.0" font-size="2.0" fill="#06c">>|</text>
<text x="86.5" y="90.0" font-size="1.8" fill="#06c">SHUFFLE</text>
<text x="109.0" y="90.0" font-size="1.8" fill="#06c">LOOP</text>
<text x="11.5" y="186.0" font-size="1.8" fill="#06c">ON</text>
<text x="30.5" y="186.0" font-size="1.8" fill="#06c">AUTO</text>
<text x="99.5" y="186.0" font-size="1.8" fill="#06c">PRESET</text>
<text x="3.5" y="190.0" font-size="1.6" fill="#06c">+12</text>
<text x="5.0" y="213.0" font-size="1.6" fill="#06c">0</text>
<text x="3.5" y="236.0" font-size="1.6" fill="#06c">-12</text>
<text x="11.9" y="243.5" font-size="1.8" fill="#06c">PRE</text>
<text x="22.299999999999997" y="243.5" font-size="1.8" fill="#06c">60</text>
<text x="32.699999999999996" y="243.5" font-size="1.8" fill="#06c">170</text>
<text x="43.1" y="243.5" font-size="1.8" fill="#06c">310</text>
<text x="53.5" y="243.5" font-size="1.8" fill="#06c">600</text>
<text x="63.9" y="243.5" font-size="1.8" fill="#06c">1K</text>
<text x="74.30000000000001" y="243.5" font-size="1.8" fill="#06c">3K</text>
<text x="84.7" y="243.5" font-size="1.8" fill="#06c">6K</text>
<text x="95.10000000000001" y="243.5" font-size="1.8" fill="#06c">12K</text>
<text x="105.50000000000001" y="243.5" font-size="1.8" fill="#06c">14K</text>
<text x="115.9" y="243.5" font-size="1.8" fill="#06c">16K</text>
<text x="2" y="259.0" font-size="2.8" fill="#666">SPOTAMP FINAL — 127 x 255 mm — OLED apertures registered to NHD AA (+6.21,+12.20), PRE+10 slim pots, belt-drive seek</text>
<text x="2" y="264.0" font-size="2.5" fill="#666">EQ pitch 10.4 · slim slots 47x2.5 / M span 54 (VERIFY) · seek slot 87x2.5 · screen win 73x73 · VERIFY-marked dims before cutting</text>
</svg>