<svg xmlns="http://www.w3.org/2000/svg" width="175.0mm" height="294.0mm" viewBox="0 0 175.0 294.0" font-family="monospace">
<rect x="0" y="0" width="175.0" height="280.0" rx="4.0" fill="none" stroke="#222" stroke-width="0.5"/>
<rect x="10" y="7.5" width="78.0" height="20.5" fill="none" stroke="#c00" stroke-width="0.35"/>
<rect x="5.0" y="3.8499999999999996" width="88.0" height="27.8" fill="none" stroke="#999" stroke-width="0.25" stroke-dasharray="1.5 1"/>
<rect x="95.0" y="8.0" width="52.0" height="4.0" fill="none" stroke="#c00" stroke-width="0.35"/>
<rect x="105.0" y="20.75" width="32.0" height="2.5" fill="none" stroke="#c00" stroke-width="0.35"/>
<rect x="29.0" y="54.5" width="62.0" height="3.0" fill="none" stroke="#c00" stroke-width="0.35"/>
<rect x="6.75" y="46.75" width="106.5" height="18.5" fill="none" stroke="#999" stroke-width="0.25" stroke-dasharray="1.5 1"/>
<rect x="51.0" y="70.0" width="73.0" height="73.0" fill="none" stroke="#c00" stroke-width="0.35"/>
<rect x="45.0" y="63.75" width="85.0" height="85.5" fill="none" stroke="#999" stroke-width="0.25" stroke-dasharray="1.5 1"/>
<rect x="56.5" y="151.5" width="62.0" height="3.0" fill="none" stroke="#c00" stroke-width="0.35"/>
<rect x="34.25" y="143.75" width="106.5" height="18.5" fill="none" stroke="#999" stroke-width="0.25" stroke-dasharray="1.5 1"/>
<rect x="14.5" y="189.0" width="3.0" height="62.0" fill="none" stroke="#c00" stroke-width="0.35"/>
<rect x="6.75" y="166.75" width="18.5" height="106.5" fill="none" stroke="#999" stroke-width="0.25" stroke-dasharray="1.5 1"/>
<rect x="42.5" y="189.0" width="3.0" height="62.0" fill="none" stroke="#c00" stroke-width="0.35"/>
<rect x="34.75" y="166.75" width="18.5" height="106.5" fill="none" stroke="#999" stroke-width="0.25" stroke-dasharray="1.5 1"/>
<rect x="61.5" y="189.0" width="3.0" height="62.0" fill="none" stroke="#c00" stroke-width="0.35"/>
<rect x="53.75" y="166.75" width="18.5" height="106.5" fill="none" stroke="#999" stroke-width="0.25" stroke-dasharray="1.5 1"/>
<rect x="80.5" y="189.0" width="3.0" height="62.0" fill="none" stroke="#c00" stroke-width="0.35"/>
<rect x="72.75" y="166.75" width="18.5" height="106.5" fill="none" stroke="#999" stroke-width="0.25" stroke-dasharray="1.5 1"/>
<rect x="99.5" y="189.0" width="3.0" height="62.0" fill="none" stroke="#c00" stroke-width="0.35"/>
<rect x="91.75" y="166.75" width="18.5" height="106.5" fill="none" stroke="#999" stroke-width="0.25" stroke-dasharray="1.5 1"/>
<rect x="118.5" y="189.0" width="3.0" height="62.0" fill="none" stroke="#c00" stroke-width="0.35"/>
<rect x="110.75" y="166.75" width="18.5" height="106.5" fill="none" stroke="#999" stroke-width="0.25" stroke-dasharray="1.5 1"/>
<rect x="137.5" y="189.0" width="3.0" height="62.0" fill="none" stroke="#c00" stroke-width="0.35"/>
<rect x="129.75" y="166.75" width="18.5" height="106.5" fill="none" stroke="#999" stroke-width="0.25" stroke-dasharray="1.5 1"/>
<rect x="156.5" y="189.0" width="3.0" height="62.0" fill="none" stroke="#c00" stroke-width="0.35"/>
<rect x="148.75" y="166.75" width="18.5" height="106.5" fill="none" stroke="#999" stroke-width="0.25" stroke-dasharray="1.5 1"/>
<circle cx="100.5" cy="22.0" r="1.2" fill="none" stroke="#c60" stroke-width="0.35"/>
<circle cx="141.5" cy="22.0" r="1.2" fill="none" stroke="#c60" stroke-width="0.35"/>
<circle cx="108.0" cy="36.0" r="3.7" fill="none" stroke="#c00" stroke-width="0.35"/>
<circle cx="130.0" cy="36.0" r="3.7" fill="none" stroke="#c00" stroke-width="0.35"/>
<circle cx="155.0" cy="10.0" r="6.5" fill="none" stroke="#c00" stroke-width="0.35"/>
<circle cx="155.0" cy="27.0" r="6.5" fill="none" stroke="#c00" stroke-width="0.35"/>
<circle cx="155.0" cy="44.0" r="6.5" fill="none" stroke="#c00" stroke-width="0.35"/>
<circle cx="14.0" cy="39.5" r="6.5" fill="none" stroke="#c00" stroke-width="0.35"/>
<circle cx="31.5" cy="39.5" r="6.5" fill="none" stroke="#c00" stroke-width="0.35"/>
<circle cx="49.0" cy="39.5" r="6.5" fill="none" stroke="#c00" stroke-width="0.35"/>
<circle cx="66.5" cy="39.5" r="6.5" fill="none" stroke="#c00" stroke-width="0.35"/>
<circle cx="84.0" cy="39.5" r="6.5" fill="none" stroke="#c00" stroke-width="0.35"/>
<circle cx="20.0" cy="56.0" r="1.7" fill="none" stroke="#c60" stroke-width="0.35"/>
<circle cx="100.0" cy="56.0" r="1.7" fill="none" stroke="#c60" stroke-width="0.35"/>
<circle cx="155.0" cy="85.0" r="6.5" fill="none" stroke="#c00" stroke-width="0.35"/>
<circle cx="155.0" cy="106.5" r="6.5" fill="none" stroke="#c00" stroke-width="0.35"/>
<circle cx="155.0" cy="128.0" r="6.5" fill="none" stroke="#c00" stroke-width="0.35"/>
<circle cx="20.0" cy="85.0" r="6.5" fill="none" stroke="#c00" stroke-width="0.35"/>
<circle cx="20.0" cy="106.5" r="6.5" fill="none" stroke="#c00" stroke-width="0.35"/>
<circle cx="8.0" cy="147.0" r="1.0" fill="none" stroke="#080" stroke-width="0.25"/>
<circle cx="12.5" cy="147.0" r="1.0" fill="none" stroke="#080" stroke-width="0.25"/>
<circle cx="17.0" cy="147.0" r="1.0" fill="none" stroke="#080" stroke-width="0.25"/>
<circle cx="21.5" cy="147.0" r="1.0" fill="none" stroke="#080" stroke-width="0.25"/>
<circle cx="26.0" cy="147.0" r="1.0" fill="none" stroke="#080" stroke-width="0.25"/>
<circle cx="10.25" cy="150.89711431702997" r="1.0" fill="none" stroke="#080" stroke-width="0.25"/>
<circle cx="14.75" cy="150.89711431702997" r="1.0" fill="none" stroke="#080" stroke-width="0.25"/>
<circle cx="19.25" cy="150.89711431702997" r="1.0" fill="none" stroke="#080" stroke-width="0.25"/>
<circle cx="23.75" cy="150.89711431702997" r="1.0" fill="none" stroke="#080" stroke-width="0.25"/>
<circle cx="8.0" cy="154.79422863405995" r="1.0" fill="none" stroke="#080" stroke-width="0.25"/>
<circle cx="12.5" cy="154.79422863405995" r="1.0" fill="none" stroke="#080" stroke-width="0.25"/>
<circle cx="17.0" cy="154.79422863405995" r="1.0" fill="none" stroke="#080" stroke-width="0.25"/>
<circle cx="21.5" cy="154.79422863405995" r="1.0" fill="none" stroke="#080" stroke-width="0.25"/>
<circle cx="26.0" cy="154.79422863405995" r="1.0" fill="none" stroke="#080" stroke-width="0.25"/>
<circle cx="10.25" cy="158.69134295108992" r="1.0" fill="none" stroke="#080" stroke-width="0.25"/>
<circle cx="14.75" cy="158.69134295108992" r="1.0" fill="none" stroke="#080" stroke-width="0.25"/>
<circle cx="19.25" cy="158.69134295108992" r="1.0" fill="none" stroke="#080" stroke-width="0.25"/>
<circle cx="23.75" cy="158.69134295108992" r="1.0" fill="none" stroke="#080" stroke-width="0.25"/>
<circle cx="147.0" cy="147.0" r="1.0" fill="none" stroke="#080" stroke-width="0.25"/>
<circle cx="151.5" cy="147.0" r="1.0" fill="none" stroke="#080" stroke-width="0.25"/>
<circle cx="156.0" cy="147.0" r="1.0" fill="none" stroke="#080" stroke-width="0.25"/>
<circle cx="160.5" cy="147.0" r="1.0" fill="none" stroke="#080" stroke-width="0.25"/>
<circle cx="165.0" cy="147.0" r="1.0" fill="none" stroke="#080" stroke-width="0.25"/>
<circle cx="149.25" cy="150.89711431702997" r="1.0" fill="none" stroke="#080" stroke-width="0.25"/>
<circle cx="153.75" cy="150.89711431702997" r="1.0" fill="none" stroke="#080" stroke-width="0.25"/>
<circle cx="158.25" cy="150.89711431702997" r="1.0" fill="none" stroke="#080" stroke-width="0.25"/>
<circle cx="162.75" cy="150.89711431702997" r="1.0" fill="none" stroke="#080" stroke-width="0.25"/>
<circle cx="147.0" cy="154.79422863405995" r="1.0" fill="none" stroke="#080" stroke-width="0.25"/>
<circle cx="151.5" cy="154.79422863405995" r="1.0" fill="none" stroke="#080" stroke-width="0.25"/>
<circle cx="156.0" cy="154.79422863405995" r="1.0" fill="none" stroke="#080" stroke-width="0.25"/>
<circle cx="160.5" cy="154.79422863405995" r="1.0" fill="none" stroke="#080" stroke-width="0.25"/>
<circle cx="165.0" cy="154.79422863405995" r="1.0" fill="none" stroke="#080" stroke-width="0.25"/>
<circle cx="149.25" cy="158.69134295108992" r="1.0" fill="none" stroke="#080" stroke-width="0.25"/>
<circle cx="153.75" cy="158.69134295108992" r="1.0" fill="none" stroke="#080" stroke-width="0.25"/>
<circle cx="158.25" cy="158.69134295108992" r="1.0" fill="none" stroke="#080" stroke-width="0.25"/>
<circle cx="162.75" cy="158.69134295108992" r="1.0" fill="none" stroke="#080" stroke-width="0.25"/>
<circle cx="47.5" cy="153.0" r="1.7" fill="none" stroke="#c60" stroke-width="0.35"/>
<circle cx="127.5" cy="153.0" r="1.7" fill="none" stroke="#c60" stroke-width="0.35"/>
<circle cx="16.0" cy="180.0" r="1.7" fill="none" stroke="#c60" stroke-width="0.35"/>
<circle cx="16.0" cy="260.0" r="1.7" fill="none" stroke="#c60" stroke-width="0.35"/>
<circle cx="44.0" cy="180.0" r="1.7" fill="none" stroke="#c60" stroke-width="0.35"/>
<circle cx="44.0" cy="260.0" r="1.7" fill="none" stroke="#c60" stroke-width="0.35"/>
<circle cx="63.0" cy="180.0" r="1.7" fill="none" stroke="#c60" stroke-width="0.35"/>
<circle cx="63.0" cy="260.0" r="1.7" fill="none" stroke="#c60" stroke-width="0.35"/>
<circle cx="82.0" cy="180.0" r="1.7" fill="none" stroke="#c60" stroke-width="0.35"/>
<circle cx="82.0" cy="260.0" r="1.7" fill="none" stroke="#c60" stroke-width="0.35"/>
<circle cx="101.0" cy="180.0" r="1.7" fill="none" stroke="#c60" stroke-width="0.35"/>
<circle cx="101.0" cy="260.0" r="1.7" fill="none" stroke="#c60" stroke-width="0.35"/>
<circle cx="120.0" cy="180.0" r="1.7" fill="none" stroke="#c60" stroke-width="0.35"/>
<circle cx="120.0" cy="260.0" r="1.7" fill="none" stroke="#c60" stroke-width="0.35"/>
<circle cx="139.0" cy="180.0" r="1.7" fill="none" stroke="#c60" stroke-width="0.35"/>
<circle cx="139.0" cy="260.0" r="1.7" fill="none" stroke="#c60" stroke-width="0.35"/>
<circle cx="158.0" cy="180.0" r="1.7" fill="none" stroke="#c60" stroke-width="0.35"/>
<circle cx="158.0" cy="260.0" r="1.7" fill="none" stroke="#c60" stroke-width="0.35"/>
<text x="10" y="6.0" font-size="2.0" fill="#06c">OLED 256x64</text>
<text x="116.0" y="28.5" font-size="2.0" fill="#06c">L  BAL  R</text>
<text x="103.0" y="45.0" font-size="2.0" fill="#06c">SCROLL</text>
<text x="126.0" y="45.0" font-size="2.0" fill="#06c">MENU</text>
<text x="150.8" y="19.5" font-size="2.2" fill="#06c">SHUF</text>
<text x="150.8" y="36.5" font-size="2.2" fill="#06c">LOOP</text>
<text x="151.85" y="53.5" font-size="2.2" fill="#06c">AUX</text>
<text x="9.8" y="49.0" font-size="2.2" fill="#06c">PREV</text>
<text x="27.3" y="49.0" font-size="2.2" fill="#06c">PLAY</text>
<text x="43.75" y="49.0" font-size="2.2" fill="#06c">PAUSE</text>
<text x="62.3" y="49.0" font-size="2.2" fill="#06c">STOP</text>
<text x="79.8" y="49.0" font-size="2.2" fill="#06c">NEXT</text>
<text x="29.0" y="62.5" font-size="2.5" fill="#06c">VOLUME</text>
<text x="65.5" y="68.5" font-size="2.0" fill="#06c">HYPERPIXEL 4.0 SQUARE</text>
<text x="151.85" y="96.0" font-size="2.2" fill="#06c">NOW</text>
<text x="150.8" y="117.5" font-size="2.2" fill="#06c">LIST</text>
<text x="149.75" y="139.0" font-size="2.2" fill="#06c">QUEUE</text>
<text x="17.9" y="96.0" font-size="2.2" fill="#06c">EQ</text>
<text x="13.7" y="117.5" font-size="2.2" fill="#06c">PRESET</text>
<text x="56.5" y="159.5" font-size="2.5" fill="#06c">SEEK</text>
<text x="12.8" y="165.25" font-size="2.2" fill="#06c">PRE</text>
<text x="40.8" y="165.25" font-size="2.2" fill="#06c">60</text>
<text x="59.8" y="165.25" font-size="2.2" fill="#06c">150</text>
<text x="78.8" y="165.25" font-size="2.2" fill="#06c">400</text>
<text x="97.8" y="165.25" font-size="2.2" fill="#06c">1K</text>
<text x="116.8" y="165.25" font-size="2.2" fill="#06c">2K4</text>
<text x="135.8" y="165.25" font-size="2.2" fill="#06c">6K</text>
<text x="154.8" y="165.25" font-size="2.2" fill="#06c">15K</text>
<text x="2" y="284.0" font-size="3.5" fill="#666">PANEL 175 x 280 mm — units: mm</text>
<text x="2" y="289.0" font-size="2.5" fill="#666">EQ pitch 19.0 · fader slots 62x3 / M3 span 80 · screen win 73x73 · VERIFY-marked dims vs datasheets before cutting</text>
</svg>